<svg height="512" viewBox="0 0 64 64" width="512" xmlns="http://www.w3.org/2000/svg"><g id="flat"><path d="m3 3h58v58h-58z" fill="#cfdfe8"/><path d="m7 15h22v22h-22z" fill="#fff"/><path d="m3 3h16v8h-16z" fill="#5a6470"/><path d="m6 6h2v2h-2z" fill="#dd3e46"/><path d="m10 6h2v2h-2z" fill="#f9bb4b"/><path d="m14 6h2v2h-2z" fill="#55b56a"/><path d="m19 3h42v8h-42z" fill="#7d8d9c"/><path d="m21 29v-2l1-2v-2a4 4 0 0 0 -8 0v2l1 2v2l-2 1-1 3h12l-1-3z" fill="#ffd782"/><path d="m11 33h14v4h-14z" fill="#d3843d"/><path d="m7 41h22v8h-22z" fill="#fff"/><path d="m33 15h24v6h-24z" fill="#fff"/><path d="m7 53h50v4h-50z" fill="#195c85"/><g fill="#394d5c"><path d="m32 24h10v2h-10z"/><path d="m44 24h14v2h-14z"/><path d="m32 28h18v2h-18z"/><path d="m52 28h6v2h-6z"/><path d="m32 32h7v2h-7z"/><path d="m41 32h17v2h-17z"/><path d="m32 36h16v2h-16z"/><path d="m50 36h8v2h-8z"/><path d="m32 40h8v2h-8z"/><path d="m42 40h16v2h-16z"/><path d="m32 44h16v2h-16z"/><path d="m50 44h8v2h-8z"/><path d="m56 48h2v2h-2z"/><path d="m52 48h2v2h-2z"/></g></g></svg>