 <svg version="1.0" xmlns="http://www.w3.org/2000/svg"  width="300.000000pt" height="395.000000pt" viewBox="0 0 300.000000 395.000000"  preserveAspectRatio="xMidYMid meet">  <g transform="translate(0.000000,395.000000) scale(0.100000,-0.100000)" fill="#fff" stroke="none"> <path d="M1466 3910 c-17 -14 -26 -19 -22 -11 8 12 -68 -23 -84 -39 -3 -3 -14 -7 -25 -8 -11 -2 -31 -12 -45 -22 -14 -9 -37 -20 -52 -24 -15 -3 -33 -13 -42 -21 -8 -8 -20 -15 -26 -15 -6 0 -8 -5 -5 -11 4 -6 0 -9 -8 -7 -9 2 -23 -6 -32 -17 -9 -11 -14 -14 -10 -7 3 6 2 12 -3 12 -6 0 -12 -6 -15 -14 -3 -8 -16 -16 -29 -18 -15 -2 -22 -9 -21 -21 0 -12 -4 -16 -13 -13 -8 3 -14 1 -14 -5 0 -6 -4 -7 -10 -4 -5 3 -10 -1 -10 -10 0 -11 -5 -15 -14 -12 -8 3 -17 -1 -20 -9 -4 -10 -2 -12 6 -8 7 4 8 3 4 -4 -4 -6 -13 -9 -20 -6 -7 3 -16 -2 -20 -11 -4 -11 -2 -14 7 -10 6 4 4 0 -5 -8 -10 -8 -18 -20 -18 -26 0 -7 -4 -10 -9 -7 -5 4 -7 -4 -4 -16 4 -19 3 -20 -6 -8 -10 14 -16 7 -12 -14 1 -5 -4 -13 -11 -17 -10 -7 -10 -9 1 -9 9 0 10 -4 4 -12 -15 -19 -27 -69 -25 -101 2 -20 -1 -26 -10 -21 -10 6 -10 5 -1 -7 10 -12 9 -21 -2 -42 -9 -17 -10 -27 -3 -27 7 0 7 -4 1 -12 -9 -12 -13 -48 -17 -130 0 -16 -3 -28 -6 -28 -8 0 -3 -112 5 -133 6 -15 4 -18 -11 -17 -34 4 -45 0 -38 -12 5 -8 2 -9 -10 -5 -10 4 -15 3 -11 -3 6 -9 -8 -15 -29 -11 -5 1 -6 -6 -2 -15 5 -13 2 -15 -15 -11 -14 4 -19 2 -16 -7 5 -13 -29 -40 -36 -28 -2 4 -2 2 -1 -5 2 -6 -4 -17 -12 -23 -8 -7 -14 -17 -14 -23 0 -5 -8 -16 -17 -24 -11 -8 -12 -11 -3 -7 12 6 13 5 3 -7 -8 -11 -8 -23 2 -53 19 -55 64 -106 121 -136 27 -15 59 -42 72 -61 27 -40 124 -140 130 -135 2 3 -2 21 -9 40 -8 23 -19 36 -31 36 -10 0 -18 7 -18 16 0 8 -4 13 -9 9 -12 -7 -34 32 -26 45 4 6 -1 7 -11 3 -12 -4 -15 -2 -12 8 3 8 -3 18 -13 24 -116 67 -132 80 -145 114 -8 20 -18 43 -22 51 -5 8 -3 26 5 40 7 14 13 33 13 43 0 9 4 17 10 17 5 0 19 10 32 23 13 12 35 28 50 36 60 31 88 64 92 107 2 23 7 47 11 54 5 9 4 11 -4 6 -8 -5 -10 7 -5 46 3 29 8 60 11 68 2 8 7 38 10 65 3 28 10 53 15 56 6 4 6 9 -1 13 -6 4 -9 11 -6 16 2 4 7 25 10 46 9 61 46 174 56 168 5 -3 9 1 9 8 0 7 11 25 24 40 25 27 156 123 156 113 0 -3 26 12 58 33 52 35 163 92 187 96 6 1 39 18 75 38 36 20 75 39 88 43 12 3 20 11 17 16 -10 16 -58 5 -89 -21z"/> <path d="M1890 3933 c0 -9 98 -43 123 -43 10 0 17 -5 17 -11 0 -5 4 -7 10 -4 5 3 19 1 31 -5 11 -7 31 -14 44 -16 13 -2 48 -17 79 -33 34 -18 56 -25 56 -18 0 8 3 9 8 1 4 -6 22 -17 40 -25 17 -8 32 -18 32 -23 0 -4 6 -6 14 -3 29 11 139 -96 180 -174 30 -58 31 -63 14 -53 -10 6 -10 4 0 -8 15 -18 52 -137 54 -175 1 -7 5 -10 10 -7 4 3 8 -7 8 -23 0 -33 22 -120 39 -150 6 -12 35 -31 68 -43 75 -28 125 -59 117 -72 -4 -6 -2 -8 4 -4 6 3 14 -4 18 -16 12 -37 13 -68 3 -68 -6 0 -7 -5 -4 -11 12 -18 -5 -76 -29 -102 -13 -14 -22 -28 -20 -30 3 -2 -15 -20 -39 -40 -24 -20 -50 -50 -57 -67 l-13 -31 -15 30 c-8 17 -19 31 -24 31 -5 0 -2 -10 6 -22 9 -12 16 -39 16 -58 0 -40 -22 -80 -34 -62 -4 7 -12 12 -17 12 -5 0 -3 -10 5 -22 18 -30 34 -83 39 -135 2 -24 9 -49 15 -56 7 -8 8 -17 3 -23 -11 -12 6 -57 18 -49 6 3 8 -8 6 -27 -3 -17 1 -38 7 -46 9 -10 8 -16 -3 -23 -9 -6 -10 -9 -2 -9 13 0 13 -46 0 -67 -4 -7 -3 -14 2 -17 16 -10 -2 -98 -30 -143 -12 -18 -16 -33 -10 -33 12 0 41 41 45 62 1 7 5 18 8 24 8 12 13 220 6 248 -3 11 -2 37 2 57 4 21 3 36 -1 33 -5 -3 -9 -12 -9 -20 0 -8 -5 -14 -11 -14 -6 0 -9 7 -6 15 4 8 0 27 -8 42 -20 39 -19 48 10 61 22 10 25 9 25 -9 0 -11 5 -17 10 -14 6 3 10 19 10 35 0 16 -4 32 -10 35 -5 3 -10 -1 -10 -9 0 -9 -6 -16 -14 -16 -19 0 -33 23 -18 28 23 7 11 23 -15 20 -34 -4 -43 23 -17 49 9 10 31 47 47 83 19 40 47 80 74 104 55 49 82 100 89 174 11 98 -32 150 -157 193 -65 23 -67 24 -72 62 -5 35 -53 211 -95 346 -48 155 -163 235 -498 346 -129 44 -174 53 -174 38z"/> <path d="M1591 3831 c-31 -19 -58 -37 -61 -40 -3 -4 -27 -21 -55 -40 -91 -63 -110 -83 -108 -116 1 -16 2 -70 3 -120 3 -139 3 -140 63 -163 29 -12 62 -23 75 -27 12 -3 22 -11 22 -16 0 -6 -6 -7 -12 -2 -7 4 -41 17 -74 28 l-62 21 2 -22 c0 -12 5 -20 9 -17 4 3 15 -1 24 -9 14 -11 16 -11 10 4 -4 12 -2 15 8 11 8 -3 12 -10 8 -16 -4 -6 0 -8 10 -4 10 4 17 1 17 -6 0 -8 4 -6 10 3 9 13 14 8 12 -11 -1 -7 84 -40 154 -60 31 -8 46 -8 63 0 11 7 21 8 21 3 0 -12 62 -2 80 13 8 7 32 20 52 30 21 9 36 21 33 25 -3 5 -1 11 5 15 5 3 10 2 10 -4 0 -6 7 -8 16 -4 13 5 13 8 2 15 -9 7 -4 8 15 4 16 -4 27 -2 27 4 0 6 8 10 17 8 10 -2 18 3 19 10 3 25 5 27 13 13 12 -18 32 -5 24 16 -5 12 -2 15 8 11 11 -4 14 3 11 36 -1 22 -4 66 -6 96 -3 30 -5 55 -6 55 -1 0 -3 20 -4 45 -1 25 -5 55 -10 67 -8 25 -103 84 -232 145 -102 47 -135 47 -213 -1z m224 -37 c50 -24 113 -57 141 -73 l51 -30 8 -88 c4 -48 9 -113 11 -144 l4 -57 -50 -21 c-27 -11 -51 -21 -55 -21 -3 0 -22 -10 -43 -23 -20 -13 -53 -30 -72 -37 -19 -8 -41 -20 -48 -27 -14 -14 -18 -13 -224 57 -147 51 -135 32 -137 216 l-2 123 38 26 c196 131 239 155 263 149 14 -3 66 -25 115 -50z m-197 -509 c29 -9 52 -19 50 -21 -6 -5 -95 23 -116 36 -19 13 -14 12 66 -15z m-68 -4 c0 -5 -9 -7 -20 -4 -11 3 -20 7 -20 9 0 2 9 4 20 4 11 0 20 -4 20 -9z m77 -27 c-3 -3 -12 -4 -19 -1 -8 3 -5 6 6 6 11 1 17 -2 13 -5z m78 -4 c3 -6 -1 -7 -9 -4 -18 7 -21 14 -7 14 6 0 13 -4 16 -10z"/> <path d="M1677 3811 c-16 -6 -16 -9 -5 -18 25 -19 55 -22 54 -4 -2 27 -18 35 -49 22z"/> <path d="M1704 3739 c-6 -11 -13 -10 69 -13 38 -2 64 1 60 5 -12 12 -122 19 -129 8z"/> <path d="M1668 3733 c7 -3 16 -2 19 1 4 3 -2 6 -13 5 -11 0 -14 -3 -6 -6z"/> <path d="M1570 3720 c0 -5 5 -10 11 -10 5 0 7 5 4 10 -3 6 -8 10 -11 10 -2 0 -4 -4 -4 -10z"/> <path d="M1595 3663 c-22 -15 -41 -31 -43 -35 -2 -4 -19 -10 -38 -14 -24 -4 -34 -12 -34 -25 0 -11 -5 -19 -11 -19 -5 0 -7 -5 -3 -12 4 -6 -1 -17 -12 -25 -16 -12 -17 -15 -4 -23 8 -6 22 -7 30 -4 8 3 23 7 34 10 10 2 27 11 37 20 18 16 49 13 49 -4 0 -20 -47 -77 -65 -80 -36 -7 -41 -22 -7 -22 22 0 47 13 87 45 55 45 55 45 81 28 26 -16 26 -17 5 -25 -33 -12 -25 -21 14 -15 19 3 37 1 40 -4 13 -21 70 -9 99 21 26 26 31 28 45 16 9 -7 26 -17 39 -20 12 -4 22 -11 22 -16 0 -5 -6 -7 -14 -4 -8 3 -17 1 -21 -5 -4 -7 7 -11 29 -11 41 0 54 15 33 38 -8 9 -17 31 -20 47 -10 57 -13 65 -34 93 -32 43 -83 63 -156 61 -34 -1 -80 1 -102 5 -34 6 -46 3 -80 -21z m150 -17 c17 -1 42 2 57 5 17 5 34 2 47 -8 12 -8 21 -12 21 -9 0 3 9 -2 21 -12 41 -34 66 -112 36 -112 -8 0 -17 3 -21 7 -12 12 -40 9 -54 -4 -19 -19 -25 -16 -44 17 -18 32 -54 40 -77 18 -16 -17 -111 -17 -111 -1 0 27 -36 33 -75 12 -20 -11 -39 -18 -42 -15 -11 11 7 34 36 47 17 8 31 17 31 21 0 5 6 8 13 8 6 0 23 9 37 21 19 15 33 18 60 13 19 -3 49 -7 65 -8z m28 -115 c34 -13 35 -61 1 -61 -15 0 -23 6 -22 18 0 9 -3 25 -7 35 -8 20 -5 20 28 8z"/> <path d="M1693 3433 c-33 -6 -28 -23 7 -23 22 0 28 4 24 15 -4 8 -7 14 -8 14 0 -1 -11 -4 -23 -6z"/> <path d="M1752 3428 c3 -8 31 -13 86 -14 45 0 79 3 76 8 -3 5 -15 6 -26 2 -12 -3 -18 -2 -15 3 5 8 -25 10 -43 3 -14 -6 -37 -5 -58 2 -17 6 -23 5 -20 -4z"/> <path d="M1600 3416 c0 -9 5 -16 10 -16 6 0 10 4 10 9 0 6 -4 13 -10 16 -5 3 -10 -1 -10 -9z"/> <path d="M1645 3420 c3 -5 8 -10 11 -10 2 0 4 5 4 10 0 6 -5 10 -11 10 -5 0 -7 -4 -4 -10z"/> <path d="M1670 3380 c-7 -4 -19 -6 -27 -3 -7 3 -13 0 -13 -7 0 -8 8 -10 23 -6 12 3 32 6 45 6 12 0 22 4 22 8 0 11 -33 12 -50 2z"/> <path d="M1736 3382 c-3 -6 14 -12 39 -14 26 -2 44 1 42 7 -5 13 -74 19 -81 7z"/> <path d="M1705 3330 c-9 -14 3 -30 23 -29 11 0 12 3 5 6 -7 2 -13 9 -13 14 0 5 10 4 23 -2 20 -11 21 -11 8 4 -15 19 -37 22 -46 7z"/> <path d="M507 3739 c7 -7 15 -10 18 -7 3 3 -2 9 -12 12 -14 6 -15 5 -6 -5z"/> <path d="M2825 3590 c-3 -5 -1 -10 4 -10 6 0 11 5 11 10 0 6 -2 10 -4 10 -3 0 -8 -4 -11 -10z"/> <path d="M2728 3523 c7 -3 16 -2 19 1 4 3 -2 6 -13 5 -11 0 -14 -3 -6 -6z"/> <path d="M2765 3340 c3 -5 11 -10 16 -10 6 0 7 5 4 10 -3 6 -11 10 -16 10 -6 0 -7 -4 -4 -10z"/> <path d="M2898 3293 c7 -3 16 -2 19 1 4 3 -2 6 -13 5 -11 0 -14 -3 -6 -6z"/> <path d="M2188 3183 c7 -3 16 -2 19 1 4 3 -2 6 -13 5 -11 0 -14 -3 -6 -6z"/> <path d="M1675 3170 c-3 -6 1 -7 9 -4 18 7 21 14 7 14 -6 0 -13 -4 -16 -10z"/> <path d="M2925 3150 c3 -5 11 -10 16 -10 6 0 7 5 4 10 -3 6 -11 10 -16 10 -6 0 -7 -4 -4 -10z"/> <path d="M1518 3143 c7 -3 16 -2 19 1 4 3 -2 6 -13 5 -11 0 -14 -3 -6 -6z"/> <path d="M2815 3140 c3 -5 8 -10 11 -10 2 0 4 5 4 10 0 6 -5 10 -11 10 -5 0 -7 -4 -4 -10z"/> <path d="M1318 3103 c7 -3 16 -2 19 1 4 3 -2 6 -13 5 -11 0 -14 -3 -6 -6z"/> <path d="M1200 3076 c0 -2 7 -7 16 -10 8 -3 12 -2 9 4 -6 10 -25 14 -25 6z"/> <path d="M650 3029 c0 -5 5 -7 10 -4 6 3 10 8 10 11 0 2 -4 4 -10 4 -5 0 -10 -5 -10 -11z"/> <path d="M1710 2998 c0 -11 22 -10 39 1 10 7 7 9 -12 8 -15 -1 -27 -5 -27 -9z"/> <path d="M1795 3000 c4 -6 11 -8 16 -5 14 9 11 15 -7 15 -8 0 -12 -5 -9 -10z"/> <path d="M1830 3003 c0 -5 33 -8 74 -8 41 0 72 3 69 8 -2 4 -35 7 -74 7 -38 0 -69 -3 -69 -7z"/> <path d="M2030 3000 c-12 -8 -11 -10 8 -10 12 0 22 5 22 10 0 13 -11 13 -30 0z"/> <path d="M1650 2990 c-13 -8 -12 -10 3 -10 9 0 17 5 17 10 0 12 -1 12 -20 0z"/> <path d="M2070 2996 c0 -2 11 -6 25 -8 13 -3 22 -1 19 3 -5 9 -44 13 -44 5z"/> <path d="M1541 2979 c-18 -6 -31 -12 -29 -14 5 -5 78 14 78 20 0 6 -8 5 -49 -6z"/> <path d="M2153 2984 c4 -4 26 -8 49 -10 34 -2 38 -1 18 6 -30 10 -76 12 -67 4z"/> <path d="M1468 2958 c5 -5 16 -8 23 -6 8 3 3 7 -10 11 -17 4 -21 3 -13 -5z"/> <path d="M1430 2950 c-13 -8 -12 -10 3 -10 9 0 17 5 17 10 0 12 -1 12 -20 0z"/> <path d="M1761 2874 c0 -11 3 -14 6 -6 3 7 2 16 -1 19 -3 4 -6 -2 -5 -13z"/> <path d="M2350 2841 c0 -5 7 -12 16 -15 14 -5 15 -4 4 9 -14 17 -20 19 -20 6z"/> <path d="M1996 2823 c-6 -14 -5 -15 5 -6 7 7 10 15 7 18 -3 3 -9 -2 -12 -12z"/> <path d="M2394 2818 c-4 -7 -4 -10 1 -6 4 4 15 2 24 -5 14 -11 14 -10 2 6 -16 20 -18 21 -27 5z"/> <path d="M2183 2748 c-48 -7 -63 -14 -63 -26 0 -11 3 -13 8 -5 4 6 25 14 46 18 27 6 37 4 32 -3 -4 -8 5 -10 31 -8 20 1 39 8 41 15 2 7 8 8 15 3 7 -5 57 -12 112 -14 72 -4 94 -2 78 5 -13 5 -23 14 -23 19 0 4 -43 8 -95 8 -76 0 -97 -3 -101 -15 -4 -8 -10 -15 -15 -15 -4 0 -6 7 -3 15 4 8 5 14 3 14 -2 -1 -32 -6 -66 -11z"/> <path d="M2476 2748 c3 -4 11 -8 19 -8 7 0 15 -7 19 -15 3 -8 11 -15 17 -15 8 0 8 4 -1 15 -11 14 -5 15 51 10 34 -3 60 -3 57 1 -10 9 -167 21 -162 12z"/> <path d="M2885 2740 c-16 -7 -17 -9 -3 -9 9 -1 20 4 23 9 7 11 7 11 -20 0z"/> <path d="M1380 2736 c0 -2 7 -7 16 -10 8 -3 12 -2 9 4 -6 10 -25 14 -25 6z"/> <path d="M2048 2723 c-10 -2 -18 -8 -18 -12 0 -5 -12 -7 -27 -5 -16 2 -22 1 -15 -2 10 -5 10 -9 1 -20 -10 -12 -8 -13 7 -8 10 4 24 10 29 13 6 3 17 6 25 6 8 0 14 7 12 15 -3 12 -1 13 9 3 17 -17 26 -16 33 2 5 15 -17 18 -56 8z"/> <path d="M2629 2700 c-1 -14 -3 -35 -4 -47 -1 -14 3 -23 11 -23 16 0 18 43 4 75 -8 19 -9 18 -11 -5z"/> <path d="M2202 2690 c0 -14 2 -19 5 -12 2 6 2 18 0 25 -3 6 -5 1 -5 -13z"/> <path d="M2795 2689 c-4 -6 -5 -12 -2 -15 2 -3 7 2 10 11 7 17 1 20 -8 4z"/> <path d="M1890 2680 c-35 -8 -35 -8 8 -7 24 1 46 5 48 9 6 9 -6 9 -56 -2z"/> <path d="M2240 2681 c0 -6 4 -13 10 -16 6 -3 7 1 4 9 -7 18 -14 21 -14 7z"/> <path d="M1361 2659 c-13 -5 -32 -7 -42 -4 -11 4 -19 1 -19 -5 0 -8 -9 -10 -24 -6 -14 3 -28 2 -31 -4 -3 -5 -17 -10 -30 -10 -13 0 -26 -4 -29 -9 -4 -5 9 -6 29 -1 19 4 37 5 41 1 4 -3 4 0 0 6 -5 9 1 11 24 7 20 -5 30 -3 30 6 0 8 4 9 13 3 6 -5 26 -8 42 -7 17 1 43 2 58 3 19 1 26 5 21 13 -5 7 -3 8 6 3 23 -14 67 -13 67 2 0 20 -108 15 -125 -6 -11 -14 -11 -14 -6 2 7 19 7 19 -25 6z"/> <path d="M1531 2653 c0 -13 2 -14 6 -4 4 10 7 10 13 2 5 -9 10 -8 20 4 11 13 9 15 -14 15 -18 0 -26 -5 -25 -17z"/> <path d="M1605 2660 c3 -5 8 -10 11 -10 2 0 4 5 4 10 0 6 -5 10 -11 10 -5 0 -7 -4 -4 -10z"/> <path d="M1628 2652 c-3 -11 0 -19 8 -19 7 0 11 4 8 8 -2 4 4 12 13 18 16 9 16 10 -3 11 -13 0 -24 -8 -26 -18z"/> <path d="M1771 2661 c-10 -6 0 -8 29 -5 24 2 46 6 48 9 9 9 -63 5 -77 -4z"/> <path d="M2860 2640 c0 -5 5 -10 11 -10 5 0 7 5 4 10 -3 6 -8 10 -11 10 -2 0 -4 -4 -4 -10z"/> <path d="M2200 2630 c0 -5 5 -10 10 -10 6 0 10 5 10 10 0 6 -4 10 -10 10 -5 0 -10 -4 -10 -10z"/> <path d="M2247 2620 c3 -11 12 -20 20 -20 12 0 13 3 4 13 -6 8 -8 17 -4 20 3 4 -1 7 -9 7 -11 0 -14 -6 -11 -20z"/> <path d="M2395 2620 c10 -11 20 -18 23 -15 7 6 -18 35 -31 35 -5 0 -2 -9 8 -20z"/> <path d="M1140 2620 c0 -6 7 -10 15 -10 8 0 15 2 15 4 0 2 -7 6 -15 10 -8 3 -15 1 -15 -4z"/> <path d="M2300 2623 c1 -14 30 -47 30 -35 0 18 20 15 27 -4 3 -9 1 -19 -6 -23 -6 -4 -13 -18 -16 -31 l-4 -23 24 23 c13 13 22 26 20 31 -3 4 4 5 16 2 37 -10 0 34 -44 52 -43 17 -47 18 -47 8z"/> <path d="M2575 2548 c0 -48 -6 -97 -14 -116 -15 -37 -62 -65 -126 -77 -22 -4 -51 -9 -65 -12 -14 -3 -83 -6 -155 -7 -162 -1 -193 11 -236 95 -19 35 -29 47 -29 34 -1 -20 -1 -20 -9 0 -5 12 -4 23 3 27 10 7 1 12 -16 9 -13 -2 -9 17 5 23 8 3 7 5 -3 4 -8 -1 -30 12 -48 29 -28 28 -39 32 -81 30 -26 -1 -48 -7 -48 -13 0 -7 17 -9 44 -6 54 5 73 -10 113 -88 47 -91 124 -206 156 -232 16 -13 48 -30 70 -37 51 -16 145 -20 141 -6 -1 6 -15 10 -32 11 -16 0 -32 2 -35 3 -3 1 -16 4 -30 6 -47 7 -95 33 -135 75 -31 33 -34 39 -15 29 34 -18 256 -24 350 -10 93 14 179 55 202 96 10 18 19 63 22 115 3 47 3 76 -1 65 -5 -17 -6 -16 -17 8 -9 24 -11 17 -11 -55z"/> <path d="M2130 2569 c7 -11 14 -18 17 -15 8 8 -5 36 -17 36 -7 0 -7 -6 0 -21z"/> <path d="M2690 2579 c0 -5 4 -8 9 -5 5 4 19 -6 30 -21 15 -20 19 -22 14 -8 -3 11 -10 26 -16 33 -12 15 -37 16 -37 1z"/> <path d="M2915 2580 c4 -6 11 -8 16 -5 14 9 11 15 -7 15 -8 0 -12 -5 -9 -10z"/> <path d="M1428 2553 c7 -3 16 -2 19 1 4 3 -2 6 -13 5 -11 0 -14 -3 -6 -6z"/> <path d="M2225 2549 c-11 -17 0 -20 21 -4 17 13 17 14 2 15 -9 0 -20 -5 -23 -11z"/> <path d="M1460 2532 c0 -10 -3 -22 -7 -26 -4 -3 -8 -14 -9 -24 -2 -15 -1 -14 12 2 13 19 20 66 9 66 -3 0 -5 -8 -5 -18z"/> <path d="M2000 2546 c0 -2 8 -10 18 -17 15 -13 16 -12 3 4 -13 16 -21 21 -21 13z"/> <path d="M2160 2540 c0 -6 7 -10 15 -10 8 0 15 2 15 4 0 2 -7 6 -15 10 -8 3 -15 1 -15 -4z"/> <path d="M895 2531 c-3 -5 -2 -12 3 -15 5 -3 9 1 9 9 0 17 -3 19 -12 6z"/> <path d="M1730 2520 c-6 -11 -18 -20 -28 -20 -10 0 -13 -3 -6 -8 17 -11 13 -41 -4 -34 -10 3 -13 1 -9 -6 7 -10 4 -20 -27 -97 -17 -41 -60 -70 -119 -81 -15 -2 -47 -11 -70 -18 -52 -17 -50 -17 -177 -18 -119 -2 -166 5 -191 28 -16 14 -34 60 -31 77 1 4 -1 7 -5 7 -5 0 -9 11 -9 25 -3 38 -12 55 -29 55 -20 0 -14 -38 17 -110 26 -60 54 -88 99 -100 49 -13 212 -14 269 -1 25 5 60 13 79 16 18 3 65 18 103 33 68 26 71 29 90 77 10 28 23 59 27 70 5 11 12 29 14 40 3 11 10 35 15 53 12 36 8 42 -8 12z m-690 -116 c0 -8 -4 -12 -10 -9 -5 3 -10 10 -10 16 0 5 5 9 10 9 6 0 10 -7 10 -16z"/> <path d="M2275 2520 c-3 -5 -1 -10 4 -10 6 0 11 5 11 10 0 6 -2 10 -4 10 -3 0 -8 -4 -11 -10z"/> <path d="M1340 2499 c0 -16 27 -46 35 -38 2 2 -5 15 -15 29 -15 19 -20 21 -20 9z"/> <path d="M1266 2492 c-3 -5 1 -9 9 -9 8 0 12 4 9 9 -3 4 -7 8 -9 8 -2 0 -6 -4 -9 -8z"/> <path d="M960 2481 c0 -5 5 -13 10 -16 6 -3 10 -2 10 4 0 5 -4 13 -10 16 -5 3 -10 2 -10 -4z"/> <path d="M1410 2469 c0 -5 5 -7 10 -4 6 3 10 8 10 11 0 2 -4 4 -10 4 -5 0 -10 -5 -10 -11z"/> <path d="M1510 2470 c0 -5 5 -10 11 -10 5 0 7 5 4 10 -3 6 -8 10 -11 10 -2 0 -4 -4 -4 -10z"/> <path d="M1026 2455 c-3 -8 -1 -15 4 -15 6 0 10 7 10 15 0 8 -2 15 -4 15 -2 0 -6 -7 -10 -15z"/> <path d="M1276 2445 c4 -8 8 -15 10 -15 2 0 4 7 4 15 0 8 -4 15 -10 15 -5 0 -7 -7 -4 -15z"/> <path d="M2010 2450 c-13 -8 -12 -10 3 -10 9 0 17 5 17 10 0 12 -1 12 -20 0z"/> <path d="M270 2426 c0 -2 7 -7 16 -10 8 -3 12 -2 9 4 -6 10 -25 14 -25 6z"/> <path d="M817 2419 c7 -7 15 -10 18 -7 3 3 -2 9 -12 12 -14 6 -15 5 -6 -5z"/> <path d="M2018 2423 c6 -2 18 -2 25 0 6 3 1 5 -13 5 -14 0 -19 -2 -12 -5z"/> <path d="M2741 2414 c0 -11 3 -14 6 -6 3 7 2 16 -1 19 -3 4 -6 -2 -5 -13z"/> <path d="M1510 2410 c0 -5 5 -10 11 -10 5 0 7 5 4 10 -3 6 -8 10 -11 10 -2 0 -4 -4 -4 -10z"/> <path d="M2470 2409 c0 -5 5 -7 10 -4 6 3 10 8 10 11 0 2 -4 4 -10 4 -5 0 -10 -5 -10 -11z"/> <path d="M365 2400 c3 -5 8 -10 11 -10 2 0 4 5 4 10 0 6 -5 10 -11 10 -5 0 -7 -4 -4 -10z"/> <path d="M950 2395 c-10 -12 -16 -13 -26 -4 -10 8 -14 8 -14 1 0 -27 43 -24 54 4 7 18 2 18 -14 -1z"/> <path d="M2050 2396 c0 -2 7 -7 16 -10 8 -3 12 -2 9 4 -6 10 -25 14 -25 6z"/> <path d="M1750 2380 c0 -5 5 -10 11 -10 5 0 7 5 4 10 -3 6 -8 10 -11 10 -2 0 -4 -4 -4 -10z"/> <path d="M864 2356 c-3 -8 0 -31 6 -51 7 -20 13 -42 14 -48 10 -46 24 -78 54 -127 19 -31 31 -44 27 -30 -3 14 -7 30 -9 37 -1 7 -9 20 -17 30 -30 38 -48 79 -39 93 5 8 5 21 -1 31 -12 23 -11 39 2 39 5 0 7 -5 3 -12 -5 -8 -2 -9 9 -5 19 7 42 -26 31 -45 -5 -7 -3 -8 5 -4 7 5 11 18 10 29 0 12 0 24 1 27 10 29 8 50 -6 50 -12 0 -15 -6 -10 -25 l7 -26 -41 26 c-33 21 -41 23 -46 11z"/> <path d="M1520 2316 c7 -7 14 -6 21 1 9 9 7 12 -9 10 -14 -1 -18 -5 -12 -11z"/> <path d="M1721 2314 c0 -11 3 -14 6 -6 3 7 2 16 -1 19 -3 4 -6 -2 -5 -13z"/> <path d="M1860 2326 c0 -2 7 -7 16 -10 8 -3 12 -2 9 4 -6 10 -25 14 -25 6z"/> <path d="M2966 2321 c-4 -5 3 -7 14 -4 23 6 26 13 6 13 -8 0 -17 -4 -20 -9z"/> <path d="M1946 2301 c-3 -5 2 -15 12 -22 15 -12 16 -12 5 2 -7 9 -10 19 -6 22 3 4 4 7 0 7 -3 0 -8 -4 -11 -9z"/> <path d="M912 2264 c-1 -14 4 -32 12 -40 8 -7 16 -19 19 -26 2 -7 8 -10 12 -6 5 5 1 16 -8 26 -10 10 -17 28 -17 40 0 30 -15 35 -18 6z"/> <path d="M1230 2280 c0 -5 7 -7 15 -4 8 4 15 8 15 10 0 2 -7 4 -15 4 -8 0 -15 -4 -15 -10z"/> <path d="M770 2240 c0 -6 7 -10 15 -10 8 0 15 2 15 4 0 2 -7 6 -15 10 -8 3 -15 1 -15 -4z"/> <path d="M1580 2222 c-8 -4 -36 -20 -61 -35 -26 -15 -51 -27 -55 -25 -17 5 -52 -22 -57 -44 -5 -20 -4 -21 6 -7 7 9 19 16 27 16 24 0 130 54 158 80 24 22 15 30 -18 15z"/> <path d="M2300 2203 c0 -8 5 -13 12 -11 18 6 21 25 3 25 -8 0 -15 -7 -15 -14z"/> <path d="M2365 2210 c-4 -6 3 -10 14 -10 25 0 27 6 6 13 -8 4 -17 2 -20 -3z"/> <path d="M2482 2183 c-8 -15 -9 -24 -1 -28 15 -10 21 0 17 27 l-3 23 -13 -22z"/> <path d="M1001 2174 c0 -11 3 -14 6 -6 3 7 2 16 -1 19 -3 4 -6 -2 -5 -13z"/> <path d="M1805 2180 c-3 -5 -1 -10 4 -10 6 0 11 5 11 10 0 6 -2 10 -4 10 -3 0 -8 -4 -11 -10z"/> <path d="M1891 2179 c-1 -9 8 -24 19 -34 11 -10 20 -13 20 -7 0 7 -5 12 -10 12 -6 0 -15 10 -20 23 -6 14 -9 16 -9 6z"/> <path d="M2001 2183 c-1 -6 4 -15 9 -18 6 -3 20 -27 32 -53 22 -49 37 -46 17 4 -7 16 -12 32 -11 37 1 4 -3 7 -9 7 -6 0 -8 7 -5 16 5 14 4 15 -8 5 -11 -9 -15 -9 -19 1 -4 9 -6 9 -6 1z"/> <path d="M1705 2170 c3 -5 8 -10 11 -10 2 0 4 5 4 10 0 6 -5 10 -11 10 -5 0 -7 -4 -4 -10z"/> <path d="M1730 2155 c0 -8 4 -15 10 -15 5 0 7 7 4 15 -4 8 -8 15 -10 15 -2 0 -4 -7 -4 -15z"/> <path d="M1640 2136 c0 -8 5 -18 12 -22 7 -4 8 -3 4 4 -4 7 -2 12 4 12 6 0 8 5 5 10 -9 15 -25 12 -25 -4z"/> <path d="M1940 2140 c0 -5 5 -10 11 -10 5 0 7 5 4 10 -3 6 -8 10 -11 10 -2 0 -4 -4 -4 -10z"/> <path d="M366 2127 c3 -10 9 -15 12 -12 3 3 0 11 -7 18 -10 9 -11 8 -5 -6z"/> <path d="M1380 2125 c0 -8 -6 -15 -14 -15 -7 0 -20 -8 -27 -17 -13 -16 -12 -17 4 -4 9 7 17 10 17 6 0 -5 9 0 20 10 22 20 26 35 10 35 -5 0 -10 -7 -10 -15z"/> <path d="M2869 2118 c-12 -22 -11 -22 7 -8 10 8 20 15 22 16 2 1 -1 5 -7 8 -5 4 -15 -4 -22 -16z"/> <path d="M1820 2111 c0 -6 4 -13 10 -16 6 -3 7 1 4 9 -7 18 -14 21 -14 7z"/> <path d="M746 2077 c3 -10 9 -15 12 -12 3 3 0 11 -7 18 -10 9 -11 8 -5 -6z"/> <path d="M1615 2059 c-4 -6 -5 -12 -2 -15 2 -3 7 2 10 11 7 17 1 20 -8 4z"/> <path d="M941 2044 c0 -11 3 -14 6 -6 3 7 2 16 -1 19 -3 4 -6 -2 -5 -13z"/> <path d="M2065 2050 c3 -5 8 -10 11 -10 2 0 4 5 4 10 0 6 -5 10 -11 10 -5 0 -7 -4 -4 -10z"/> <path d="M1956 2014 c-14 -20 -23 -41 -20 -45 5 -9 44 9 55 25 4 5 11 6 17 2 22 -13 20 12 -2 33 l-24 23 -26 -38z"/> <path d="M2800 2046 c0 -2 11 -6 25 -8 13 -3 22 -1 19 3 -5 9 -44 13 -44 5z"/> <path d="M965 2030 c-4 -6 -3 -24 0 -41 5 -21 4 -29 -3 -25 -6 3 -5 -6 3 -21 7 -16 16 -43 18 -61 9 -57 19 -50 11 8 -4 30 -7 72 -7 92 -1 21 -5 34 -11 31 -5 -4 -7 1 -3 10 7 19 2 23 -8 7z"/> <path d="M2250 2030 c0 -5 5 -10 11 -10 5 0 7 5 4 10 -3 6 -8 10 -11 10 -2 0 -4 -4 -4 -10z"/> <path d="M1686 2013 c-9 -22 1 -32 24 -26 14 4 20 1 18 -8 -2 -8 5 -14 17 -15 11 0 28 -4 38 -8 10 -5 21 -6 24 -2 3 3 -3 9 -13 12 -10 4 -29 17 -42 30 -29 28 -59 36 -66 17z"/> <path d="M2040 2011 c0 -5 7 -12 16 -15 14 -5 15 -4 4 9 -14 17 -20 19 -20 6z"/> <path d="M1618 1972 c-3 -12 -2 -20 3 -16 5 3 9 -2 9 -11 0 -9 5 -13 10 -10 6 3 10 0 10 -7 0 -8 9 -14 20 -14 27 0 25 8 -10 31 -16 11 -31 27 -33 35 -2 10 -5 7 -9 -8z"/> <path d="M2023 1963 c-32 -22 -28 -34 7 -22 17 6 30 17 30 25 0 18 -9 17 -37 -3z"/> <path d="M2720 1950 c0 -5 5 -10 11 -10 5 0 7 5 4 10 -3 6 -8 10 -11 10 -2 0 -4 -4 -4 -10z"/> <path d="M2820 1945 c0 -8 4 -15 10 -15 5 0 7 7 4 15 -4 8 -8 15 -10 15 -2 0 -4 -7 -4 -15z"/> <path d="M2658 1930 c-12 -47 -19 -85 -19 -105 0 -46 -73 -255 -103 -294 -13 -17 -18 -121 -5 -121 7 0 14 55 10 82 0 4 12 34 28 65 54 107 107 305 99 368 -4 30 -4 30 -10 5z"/> <path d="M2978 1943 c7 -3 16 -2 19 1 4 3 -2 6 -13 5 -11 0 -14 -3 -6 -6z"/> <path d="M1880 1920 c0 -5 7 -7 15 -4 8 4 15 8 15 10 0 2 -7 4 -15 4 -8 0 -15 -4 -15 -10z"/> <path d="M1975 1919 c-4 -6 -5 -12 -2 -15 2 -3 7 2 10 11 7 17 1 20 -8 4z"/> <path d="M2695 1920 c-3 -5 -1 -10 4 -10 6 0 11 5 11 10 0 6 -2 10 -4 10 -3 0 -8 -4 -11 -10z"/> <path d="M1295 1900 c3 -5 8 -10 11 -10 2 0 4 5 4 10 0 6 -5 10 -11 10 -5 0 -7 -4 -4 -10z"/> <path d="M1700 1900 c0 -5 5 -10 11 -10 5 0 7 5 4 10 -3 6 -8 10 -11 10 -2 0 -4 -4 -4 -10z"/> <path d="M1856 1888 c3 -4 9 -8 15 -8 5 0 9 4 9 8 0 5 -7 9 -15 9 -8 0 -12 -4 -9 -9z"/> <path d="M1775 1880 c3 -5 8 -10 11 -10 2 0 4 5 4 10 0 6 -5 10 -11 10 -5 0 -7 -4 -4 -10z"/> <path d="M2755 1879 c4 -5 16 -9 27 -9 26 0 19 9 -11 15 -12 2 -19 0 -16 -6z"/> <path d="M2908 1883 c12 -2 30 -2 40 0 9 3 -1 5 -23 4 -22 0 -30 -2 -17 -4z"/> <path d="M1835 1870 c-4 -6 3 -10 14 -10 25 0 27 6 6 13 -8 4 -17 2 -20 -3z"/> <path d="M2106 1872 c-3 -5 1 -9 9 -9 8 0 12 4 9 9 -3 4 -7 8 -9 8 -2 0 -6 -4 -9 -8z"/> <path d="M2175 1850 c-3 -5 1 -10 10 -10 9 0 13 5 10 10 -3 6 -8 10 -10 10 -2 0 -7 -4 -10 -10z"/> <path d="M710 1840 c0 -5 5 -10 11 -10 5 0 7 5 4 10 -3 6 -8 10 -11 10 -2 0 -4 -4 -4 -10z"/> <path d="M1955 1830 c3 -5 8 -10 11 -10 2 0 4 5 4 10 0 6 -5 10 -11 10 -5 0 -7 -4 -4 -10z"/> <path d="M2021 1824 c0 -11 3 -14 6 -6 3 7 2 16 -1 19 -3 4 -6 -2 -5 -13z"/> <path d="M150 1821 c0 -6 4 -13 10 -16 6 -3 7 1 4 9 -7 18 -14 21 -14 7z"/> <path d="M1000 1819 c0 -6 -9 -8 -22 -3 -22 6 -22 5 3 -22 15 -16 29 -40 32 -54 16 -76 35 -128 82 -220 41 -82 82 -140 97 -140 6 0 5 7 -2 15 -7 8 -10 15 -7 15 3 0 -5 12 -18 26 -14 15 -37 52 -51 83 -14 31 -32 69 -40 85 -7 16 -11 32 -8 37 3 5 0 9 -7 9 -7 0 -10 3 -6 6 6 7 -28 111 -43 129 -6 7 -8 20 -4 29 3 9 3 16 0 16 -3 0 -6 -5 -6 -11z"/> <path d="M2685 1770 c-3 -6 1 -7 9 -4 18 7 21 14 7 14 -6 0 -13 -4 -16 -10z"/> <path d="M954 1725 c26 -20 42 -19 22 0 -8 8 -21 15 -28 15 -8 -1 -6 -6 6 -15z"/> <path d="M2088 1703 c7 -3 16 -2 19 1 4 3 -2 6 -13 5 -11 0 -14 -3 -6 -6z"/> <path d="M1660 1680 c-9 -6 -10 -10 -3 -10 6 0 15 5 18 10 8 12 4 12 -15 0z"/> <path d="M2174 1671 c3 -5 -5 -11 -19 -13 -14 -3 -25 -1 -25 5 0 5 -7 4 -15 -3 -8 -7 -15 -8 -15 -3 0 5 -9 9 -20 10 -13 1 -18 -2 -13 -10 5 -9 2 -8 -9 0 -8 7 -17 11 -19 9 -2 -2 -22 -6 -44 -9 -22 -3 -64 -11 -94 -18 -31 -6 -76 -8 -110 -4 -72 9 -85 9 -150 -6 -41 -9 -58 -9 -72 -1 -13 8 -19 9 -19 1 0 -5 -4 -7 -10 -4 -5 3 -10 1 -10 -5 0 -6 12 -16 26 -22 20 -9 37 -9 83 4 55 14 174 16 229 3 12 -3 22 -1 22 4 0 8 44 19 110 28 40 5 192 3 202 -3 4 -3 8 0 8 6 0 6 5 8 10 5 14 -9 13 8 -2 23 -14 14 -52 17 -44 3z"/> <path d="M2970 1670 c0 -6 7 -10 15 -10 8 0 15 2 15 4 0 2 -7 6 -15 10 -8 3 -15 1 -15 -4z"/> <path d="M2065 1560 c-14 -16 -20 -17 -27 -8 -6 10 -8 8 -8 -4 0 -10 2 -18 4 -18 12 0 51 28 54 38 3 17 -2 15 -23 -8z"/> <path d="M1980 1550 c0 -5 5 -10 11 -10 5 0 7 5 4 10 -3 6 -8 10 -11 10 -2 0 -4 -4 -4 -10z"/> <path d="M1836 1525 c14 -22 34 -34 34 -20 0 7 -39 45 -45 45 -3 0 2 -11 11 -25z"/> <path d="M2598 1543 c7 -3 16 -2 19 1 4 3 -2 6 -13 5 -11 0 -14 -3 -6 -6z"/> <path d="M1955 1520 c4 -6 11 -8 16 -5 14 9 11 15 -7 15 -8 0 -12 -5 -9 -10z"/> <path d="M1705 1500 c3 -5 8 -10 11 -10 2 0 4 5 4 10 0 6 -5 10 -11 10 -5 0 -7 -4 -4 -10z"/> <path d="M2690 1506 c0 -2 7 -7 16 -10 8 -3 12 -2 9 4 -6 10 -25 14 -25 6z"/> <path d="M2788 1473 c7 -3 16 -2 19 1 4 3 -2 6 -13 5 -11 0 -14 -3 -6 -6z"/> <path d="M777 1429 c7 -7 15 -10 18 -7 3 3 -2 9 -12 12 -14 6 -15 5 -6 -5z"/> <path d="M2030 1430 c0 -5 5 -10 11 -10 5 0 7 5 4 10 -3 6 -8 10 -11 10 -2 0 -4 -4 -4 -10z"/> <path d="M2830 1425 c-8 -9 -8 -15 -2 -15 12 0 26 19 19 26 -2 2 -10 -2 -17 -11z"/> <path d="M1787 1396 c-17 -13 -17 -14 0 -20 10 -4 14 -4 10 0 -4 4 -2 13 4 21 14 17 9 16 -14 -1z"/> <path d="M1880 1401 c0 -5 -12 -8 -26 -5 -24 4 -25 3 -10 -11 12 -13 20 -14 36 -5 11 6 18 15 15 21 -8 12 -15 12 -15 0z"/> <path d="M2230 1391 c0 -5 7 -12 16 -15 14 -5 15 -4 4 9 -14 17 -20 19 -20 6z"/> <path d="M2520 1380 c0 -11 18 -49 39 -83 76 -122 92 -225 50 -336 -6 -14 -9 -26 -7 -26 2 0 -7 -11 -19 -25 -13 -13 -23 -27 -23 -30 0 -3 -18 -14 -40 -24 -22 -10 -40 -22 -40 -27 0 -5 -6 -9 -14 -9 -7 0 -19 -6 -25 -14 -7 -8 -26 -18 -42 -21 -16 -4 -29 -11 -29 -16 0 -18 113 36 175 83 82 63 109 130 103 252 -4 72 -9 91 -42 150 -20 38 -43 75 -51 83 -8 8 -15 25 -15 39 0 13 -4 24 -10 24 -5 0 -10 -9 -10 -20z"/> <path d="M1157 1373 c-4 -3 -7 -11 -7 -17 0 -6 5 -5 12 2 6 6 9 14 7 17 -3 3 -9 2 -12 -2z"/> <path d="M2280 1372 c0 -5 7 -15 15 -22 8 -7 15 -8 15 -2 0 5 -7 15 -15 22 -8 7 -15 8 -15 2z"/> <path d="M1200 1365 c0 -10 44 -55 54 -55 8 0 8 3 0 8 -6 4 -16 17 -23 30 -10 19 -31 31 -31 17z"/> <path d="M1872 1361 c-10 -6 -10 -10 3 -21 11 -9 18 -10 28 -1 8 6 17 8 20 4 4 -3 7 -1 7 7 0 10 3 10 15 0 12 -10 19 -10 27 -2 7 7 10 12 8 13 -29 5 -70 4 -70 -3 0 -4 -8 -8 -17 -8 -15 0 -16 2 -3 10 8 5 11 10 5 10 -5 0 -16 -4 -23 -9z"/> <path d="M2798 1353 c7 -3 16 -2 19 1 4 3 -2 6 -13 5 -11 0 -14 -3 -6 -6z"/> <path d="M1785 1340 c3 -5 8 -10 11 -10 2 0 4 5 4 10 0 6 -5 10 -11 10 -5 0 -7 -4 -4 -10z"/> <path d="M2231 1333 c7 -12 15 -20 18 -17 3 2 -3 12 -13 22 -17 16 -18 16 -5 -5z"/> <path d="M1151 1331 c-7 -5 -12 -14 -10 -20 2 -6 10 -2 17 9 14 22 13 23 -7 11z"/> <path d="M1820 1300 c0 -11 2 -20 4 -20 2 0 6 9 9 20 3 11 1 20 -4 20 -5 0 -9 -9 -9 -20z"/> <path d="M1875 1310 c3 -5 8 -10 11 -10 2 0 4 5 4 10 0 6 -5 10 -11 10 -5 0 -7 -4 -4 -10z"/> <path d="M2614 1307 c36 -23 98 -81 107 -102 8 -18 9 -18 6 5 -1 14 -11 35 -22 47 -23 24 -85 63 -100 62 -5 0 -1 -6 9 -12z"/> <path d="M2180 1303 c0 -5 4 -15 10 -23 11 -18 25 -7 17 15 -6 15 -27 21 -27 8z"/> <path d="M2260 1301 c0 -5 7 -11 15 -15 8 -3 13 -11 11 -18 -1 -7 -1 -10 1 -5 3 4 9 4 15 1 5 -3 4 3 -4 15 -13 22 -38 36 -38 22z"/> <path d="M705 1290 c-3 -5 -2 -10 4 -10 5 0 13 5 16 10 3 6 2 10 -4 10 -5 0 -13 -4 -16 -10z"/> <path d="M2760 1290 c0 -5 5 -10 11 -10 5 0 7 5 4 10 -3 6 -8 10 -11 10 -2 0 -4 -4 -4 -10z"/> <path d="M2097 1283 c-3 -5 1 -21 8 -38 12 -26 13 -27 14 -8 1 12 -4 25 -9 28 -6 4 -8 11 -5 16 4 5 4 9 1 9 -3 0 -7 -3 -9 -7z"/> <path d="M2160 1279 c0 -5 5 -7 10 -4 6 3 10 8 10 11 0 2 -4 4 -10 4 -5 0 -10 -5 -10 -11z"/> <path d="M2237 1270 c7 -25 23 -37 23 -17 0 8 -6 20 -14 26 -12 10 -13 8 -9 -9z"/> <path d="M1260 1264 c0 -8 5 -12 10 -9 6 4 8 11 5 16 -9 14 -15 11 -15 -7z"/> <path d="M1613 1253 c4 -3 1 -13 -6 -22 -11 -14 -10 -14 5 -2 16 12 16 31 1 31 -4 0 -3 -3 0 -7z"/> <path d="M1452 1230 c0 -14 2 -19 5 -12 2 6 2 18 0 25 -3 6 -5 1 -5 -13z"/> <path d="M2045 1230 c10 -11 20 -20 22 -20 2 0 -1 9 -7 20 -6 11 -16 20 -22 20 -6 0 -3 -9 7 -20z"/> <path d="M2155 1239 c-4 -6 -4 -13 -1 -16 3 -4 6 -1 6 6 0 7 5 9 12 5 7 -4 8 -3 4 4 -9 15 -13 15 -21 1z"/> <path d="M2785 1228 c28 -11 55 -21 60 -22 6 -1 17 -6 25 -11 8 -5 32 -12 55 -15 22 -4 45 -9 50 -11 6 -2 11 0 13 5 1 5 -10 11 -25 12 -15 2 -37 7 -48 13 -33 16 -148 51 -164 50 -9 0 7 -9 34 -21z"/> <path d="M1947 1233 c-10 -9 -9 -23 1 -23 5 0 9 7 9 15 0 17 -1 18 -10 8z"/> <path d="M2100 1182 c0 -7 -4 -10 -10 -7 -5 3 -10 2 -10 -4 0 -15 20 -25 30 -15 5 5 5 16 0 24 -7 11 -10 11 -10 2z"/> <path d="M2275 1181 c3 -2 0 -12 -6 -23 -10 -18 -8 -18 20 3 17 12 31 23 31 23 0 1 -11 1 -24 1 -13 0 -23 -2 -21 -4z"/> <path d="M1695 1170 c3 -5 8 -10 11 -10 2 0 4 5 4 10 0 6 -5 10 -11 10 -5 0 -7 -4 -4 -10z"/> <path d="M2706 1165 c4 -8 8 -15 10 -15 2 0 4 7 4 15 0 8 -4 15 -10 15 -5 0 -7 -7 -4 -15z"/> <path d="M1010 1160 c-9 -6 -10 -10 -3 -10 6 0 15 5 18 10 8 12 4 12 -15 0z"/> <path d="M1071 1151 c-41 -26 103 -173 259 -263 114 -67 289 -129 400 -143 19 -3 55 -9 80 -15 67 -16 377 -21 389 -6 7 9 -4 11 -47 8 -31 -2 -86 -3 -122 -1 -134 4 -165 6 -172 9 -12 4 -20 6 -68 14 -167 28 -267 53 -290 72 -15 12 -19 14 -41 14 -5 0 -7 6 -3 13 4 6 4 9 0 5 -4 -3 -22 -1 -39 5 -43 14 -197 114 -197 127 0 5 -6 10 -12 10 -19 1 -80 59 -106 101 -16 27 -19 38 -10 47 14 14 -1 16 -21 3z"/> <path d="M1810 1141 c0 -5 5 -13 10 -16 6 -3 10 -2 10 4 0 5 -4 13 -10 16 -5 3 -10 2 -10 -4z"/> <path d="M1856 1135 c4 -8 8 -15 10 -15 2 0 4 7 4 15 0 8 -4 15 -10 15 -5 0 -7 -7 -4 -15z"/> <path d="M2230 1130 c0 -5 -7 -10 -16 -10 -8 0 -12 -4 -9 -10 3 -5 -1 -10 -10 -10 -9 0 -13 -4 -10 -10 3 -5 -6 -12 -20 -16 -23 -6 -36 -24 -17 -24 16 0 92 64 92 77 0 7 -2 13 -5 13 -3 0 -5 -4 -5 -10z"/> <path d="M2750 1129 c0 -25 26 -100 32 -94 3 4 2 21 -4 38 -5 18 -10 37 -12 44 -3 19 -16 28 -16 12z"/> <path d="M983 1103 c0 -9 4 -10 14 -2 7 6 13 12 13 14 0 1 -6 2 -13 2 -8 0 -14 -6 -14 -14z"/> <path d="M1751 1104 c0 -11 3 -14 6 -6 3 7 2 16 -1 19 -3 4 -6 -2 -5 -13z"/> <path d="M1530 1101 c0 -9 30 -24 36 -18 2 1 -6 8 -16 15 -11 7 -20 8 -20 3z"/> <path d="M1937 1093 c-4 -3 -7 -11 -7 -17 0 -6 5 -5 12 2 6 6 9 14 7 17 -3 3 -9 2 -12 -2z"/> <path d="M960 1080 c0 -5 5 -10 11 -10 5 0 7 5 4 10 -3 6 -8 10 -11 10 -2 0 -4 -4 -4 -10z"/> <path d="M2820 1076 c0 -2 7 -6 15 -10 8 -3 15 -1 15 4 0 6 -7 10 -15 10 -8 0 -15 -2 -15 -4z"/> <path d="M870 1054 c0 -5 8 -14 19 -21 14 -9 24 -8 47 8 l29 19 -31 -3 c-23 -1 -30 -6 -26 -17 4 -11 -1 -10 -16 4 -12 11 -22 15 -22 10z"/> <path d="M2106 1044 c-3 -8 -10 -13 -15 -9 -5 3 -12 1 -16 -4 -7 -12 35 -5 48 8 5 5 5 11 -1 15 -5 3 -13 -1 -16 -10z"/> <path d="M1635 1038 c11 -6 28 -18 38 -26 16 -14 17 -14 12 0 -3 8 -17 20 -31 27 -32 14 -45 14 -19 -1z"/> <path d="M1926 1032 c-3 -5 1 -9 9 -9 8 0 12 4 9 9 -3 4 -7 8 -9 8 -2 0 -6 -4 -9 -8z"/> <path d="M568 1023 c7 -3 16 -2 19 1 4 3 -2 6 -13 5 -11 0 -14 -3 -6 -6z"/> <path d="M833 1014 c-7 -6 -17 -14 -24 -16 -7 -2 -10 -9 -8 -15 2 -7 18 0 37 16 18 15 26 28 19 28 -7 0 -18 -6 -24 -13z"/> <path d="M1715 990 c28 -12 45 -12 45 0 0 6 -15 10 -32 9 -28 0 -30 -2 -13 -9z"/> <path d="M2860 990 c0 -5 10 -10 23 -10 18 0 19 2 7 10 -19 13 -30 13 -30 0z"/> <path d="M1086 975 c-3 -8 2 -21 10 -30 18 -18 28 -20 18 -4 -3 6 -2 14 4 18 7 4 5 11 -8 18 -14 10 -19 9 -24 -2z"/> <path d="M2817 983 c-10 -9 -9 -23 1 -23 5 0 9 7 9 15 0 17 -1 18 -10 8z"/> <path d="M766 965 c4 -10 0 -15 -10 -15 -9 0 -19 -7 -22 -15 -5 -13 -9 -13 -22 -3 -13 11 -15 10 -9 -4 3 -10 2 -20 -3 -23 -6 -4 -10 -11 -10 -17 0 -7 9 -2 20 10 12 12 24 22 29 22 14 0 51 41 46 51 -10 15 -25 10 -19 -6z"/> <path d="M2764 969 c-3 -6 -1 -16 5 -22 8 -8 11 -5 11 11 0 24 -5 28 -16 11z"/> <path d="M830 950 c-9 -6 -10 -10 -3 -10 6 0 15 5 18 10 8 12 4 12 -15 0z"/> <path d="M990 940 c11 -20 30 -28 30 -12 0 11 -22 32 -32 32 -5 0 -4 -9 2 -20z"/> <path d="M1050 950 c0 -5 5 -10 11 -10 5 0 7 5 4 10 -3 6 -8 10 -11 10 -2 0 -4 -4 -4 -10z"/> <path d="M2980 940 c-13 -8 -12 -10 3 -10 9 0 17 5 17 10 0 12 -1 12 -20 0z"/> <path d="M945 930 c3 -5 11 -10 16 -10 6 0 7 5 4 10 -3 6 -11 10 -16 10 -6 0 -7 -4 -4 -10z"/> <path d="M1137 907 c-3 -8 3 -14 15 -14 16 -2 17 1 8 13 -15 17 -17 17 -23 1z"/> <path d="M882 890 c0 -14 2 -19 5 -12 2 6 2 18 0 25 -3 6 -5 1 -5 -13z"/> <path d="M1060 900 c0 -6 11 -16 25 -22 14 -6 25 -15 25 -20 0 -4 4 -8 10 -8 5 0 7 7 4 15 -4 8 -12 15 -19 15 -8 0 -21 7 -29 16 -9 8 -16 11 -16 4z"/> <path d="M1200 901 c0 -6 5 -13 10 -16 6 -3 10 1 10 9 0 9 -4 16 -10 16 -5 0 -10 -4 -10 -9z"/> <path d="M2826 891 c-3 -5 1 -12 10 -15 22 -8 25 -4 9 11 -8 7 -16 9 -19 4z"/> <path d="M1049 864 c17 -14 37 -23 43 -21 9 4 7 6 -3 6 -9 1 -24 10 -34 21 -10 11 -22 20 -27 20 -5 0 4 -12 21 -26z"/> <path d="M2670 880 c0 -5 5 -10 10 -10 6 0 10 5 10 10 0 6 -4 10 -10 10 -5 0 -10 -4 -10 -10z"/> <path d="M660 869 c0 -5 -4 -7 -10 -4 -5 3 -10 1 -10 -6 0 -7 -3 -9 -7 -6 -7 8 -43 -47 -43 -66 0 -6 6 -3 12 8 6 11 27 34 47 52 20 18 30 32 24 33 -7 0 -13 -5 -13 -11z"/> <path d="M1243 855 c8 -8 18 -10 28 -4 9 4 19 6 23 4 3 -3 4 -2 1 1 -2 4 -18 8 -34 9 -23 2 -27 0 -18 -10z"/> <path d="M958 853 c7 -3 16 -2 19 1 4 3 -2 6 -13 5 -11 0 -14 -3 -6 -6z"/> <path d="M2620 850 c0 -5 5 -10 11 -10 5 0 7 5 4 10 -3 6 -8 10 -11 10 -2 0 -4 -4 -4 -10z"/> <path d="M2725 850 c-3 -5 -3 -15 1 -21 6 -11 23 6 24 24 0 10 -18 9 -25 -3z"/> <path d="M2940 849 c0 -5 5 -7 10 -4 6 3 10 8 10 11 0 2 -4 4 -10 4 -5 0 -10 -5 -10 -11z"/> <path d="M2670 830 c0 -5 5 -10 11 -10 5 0 7 5 4 10 -3 6 -8 10 -11 10 -2 0 -4 -4 -4 -10z"/> <path d="M150 826 c0 -2 8 -10 18 -17 15 -13 16 -12 3 4 -13 16 -21 21 -21 13z"/> <path d="M1120 799 c45 -39 80 -63 85 -58 7 8 -9 23 -57 57 -58 40 -74 41 -28 1z"/> <path d="M1300 819 c0 -4 13 -12 30 -17 19 -7 28 -16 25 -25 -4 -8 6 -19 22 -27 47 -23 49 -23 22 1 -15 13 -29 32 -32 42 -4 9 -14 17 -22 17 -9 0 -14 4 -11 8 2 4 -4 8 -15 8 -10 0 -19 -3 -19 -7z"/> <path d="M557 806 c-3 -8 -2 -18 3 -21 13 -8 20 9 11 24 -6 10 -10 9 -14 -3z"/> <path d="M1260 810 c0 -5 10 -15 23 -21 22 -12 22 -12 3 10 -21 23 -26 26 -26 11z"/> <path d="M516 775 c-11 -8 -15 -15 -9 -15 6 0 16 7 23 15 16 19 11 19 -14 0z"/> <path d="M1040 781 c0 -6 4 -13 10 -16 6 -3 7 1 4 9 -7 18 -14 21 -14 7z"/> <path d="M2547 769 c-4 -15 -2 -19 10 -15 8 3 16 6 19 6 2 0 1 7 -2 15 -9 21 -21 19 -27 -6z"/> <path d="M2700 779 c0 -5 5 -7 10 -4 6 3 10 8 10 11 0 2 -4 4 -10 4 -5 0 -10 -5 -10 -11z"/> <path d="M900 760 c0 -5 5 -10 11 -10 5 0 7 5 4 10 -3 6 -8 10 -11 10 -2 0 -4 -4 -4 -10z"/> <path d="M1075 760 c-3 -5 1 -10 10 -10 9 0 13 5 10 10 -3 6 -8 10 -10 10 -2 0 -7 -4 -10 -10z"/> <path d="M2330 758 c0 -5 -13 -7 -30 -4 -16 2 -30 1 -30 -4 0 -4 -12 -11 -26 -14 -15 -4 -24 -10 -21 -13 4 -3 19 -1 34 5 15 6 45 13 66 17 36 6 52 22 22 22 -8 0 -15 -4 -15 -9z"/> <path d="M2480 760 c0 -5 -6 -7 -14 -4 -8 3 -17 1 -20 -5 -11 -16 29 -22 57 -8 15 8 24 17 20 20 -10 11 -43 8 -43 -3z"/> <path d="M2800 760 c-8 -5 -10 -10 -5 -10 6 0 17 5 25 10 8 5 11 10 5 10 -5 0 -17 -5 -25 -10z"/> <path d="M810 752 c0 -5 7 -9 15 -9 8 0 15 4 15 9 0 4 -7 8 -15 8 -8 0 -15 -4 -15 -8z"/> <path d="M1459 751 c8 -5 11 -16 8 -26 -4 -9 -3 -13 2 -10 5 3 12 1 16 -5 3 -5 12 -10 18 -10 7 0 4 5 -5 11 -10 5 -18 19 -18 29 0 12 -7 20 -17 20 -15 0 -15 -2 -4 -9z"/> <path d="M2860 745 c-7 -9 -8 -15 -2 -15 5 0 12 7 16 15 3 8 4 15 2 15 -2 0 -9 -7 -16 -15z"/> <path d="M480 739 c0 -5 5 -7 10 -4 6 3 10 8 10 11 0 2 -4 4 -10 4 -5 0 -10 -5 -10 -11z"/> <path d="M1331 734 c0 -11 3 -14 6 -6 3 7 2 16 -1 19 -3 4 -6 -2 -5 -13z"/> <path d="M1535 740 c3 -5 10 -10 16 -10 5 0 9 5 9 10 0 6 -7 10 -16 10 -8 0 -12 -4 -9 -10z"/> <path d="M440 726 c0 -8 -12 -18 -26 -23 l-26 -9 27 -12 c14 -7 24 -8 21 -3 -4 5 -1 15 6 23 17 17 21 38 8 38 -5 0 -10 -6 -10 -14z"/> <path d="M1100 731 c0 -8 -7 -11 -17 -6 -15 5 -16 4 -5 -6 9 -10 15 -10 24 -1 6 6 9 15 5 19 -4 3 -7 1 -7 -6z"/> <path d="M2625 730 c-11 -17 5 -32 21 -19 7 6 11 15 8 20 -7 12 -21 11 -29 -1z"/> <path d="M1241 712 c31 -24 166 -89 202 -97 15 -4 30 -11 33 -16 12 -19 24 -8 14 12 -7 11 -14 18 -17 15 -4 -3 -26 6 -50 20 -24 14 -48 22 -53 19 -6 -4 -23 7 -37 24 -29 33 -49 41 -39 15 4 -12 -1 -10 -23 5 -36 26 -63 28 -30 3z"/> <path d="M2381 721 c-7 -5 -22 -6 -32 -4 -13 4 -19 0 -19 -11 0 -9 2 -16 5 -16 10 0 65 30 65 35 0 7 -3 6 -19 -4z"/> <path d="M2840 712 c6 -13 14 -21 18 -18 3 4 -2 14 -12 24 -18 16 -18 16 -6 -6z"/> <path d="M1695 710 c3 -5 11 -10 16 -10 6 0 7 5 4 10 -3 6 -11 10 -16 10 -6 0 -7 -4 -4 -10z"/> <path d="M1136 683 c-6 -14 -5 -15 5 -6 7 7 10 15 7 18 -3 3 -9 -2 -12 -12z"/> <path d="M2300 679 c0 -5 5 -7 10 -4 6 3 10 8 10 11 0 2 -4 4 -10 4 -5 0 -10 -5 -10 -11z"/> <path d="M373 664 c-16 -17 -16 -21 1 -27 8 -3 16 2 19 14 6 24 -4 31 -20 13z"/> <path d="M2357 673 c-4 -3 -7 -11 -7 -17 0 -6 5 -5 12 2 6 6 9 14 7 17 -3 3 -9 2 -12 -2z"/> <path d="M542 634 c11 -19 23 -33 26 -30 3 3 -1 12 -8 21 -7 8 -10 21 -7 28 3 7 -3 13 -13 14 -17 2 -17 0 2 -33z"/> <path d="M1580 663 c0 -8 51 -35 56 -30 2 2 -10 11 -26 21 -17 9 -30 14 -30 9z"/> <path d="M2240 666 c0 -2 7 -7 16 -10 8 -3 12 -2 9 4 -6 10 -25 14 -25 6z"/> <path d="M670 650 c-10 -7 -11 -10 -2 -10 6 0 12 -9 12 -20 0 -11 4 -20 8 -20 8 0 9 46 1 54 -3 3 -11 1 -19 -4z"/> <path d="M1180 645 c0 -8 4 -15 10 -15 5 0 7 7 4 15 -4 8 -8 15 -10 15 -2 0 -4 -7 -4 -15z"/> <path d="M2480 650 c-9 -6 -10 -10 -3 -10 6 0 15 5 18 10 8 12 4 12 -15 0z"/> <path d="M1225 641 c-3 -5 -1 -12 5 -16 5 -3 10 1 10 9 0 18 -6 21 -15 7z"/> <path d="M1724 635 c21 -16 32 -13 21 4 -3 6 -14 11 -23 11 -15 -1 -15 -2 2 -15z"/> <path d="M2135 640 c-18 -8 -17 -9 8 -9 15 -1 27 4 27 9 0 12 -8 12 -35 0z"/> <path d="M334 626 c-3 -9 -10 -16 -16 -16 -11 0 -38 -25 -38 -36 0 -4 9 1 20 11 11 10 20 14 20 9 0 -5 7 2 16 14 9 13 13 26 10 29 -3 3 -8 -2 -12 -11z"/> <path d="M1091 627 c2 -1 13 -9 24 -17 19 -14 19 -14 6 3 -7 9 -18 17 -24 17 -6 0 -8 -1 -6 -3z"/> <path d="M900 605 c0 -8 4 -15 10 -15 5 0 7 7 4 15 -4 8 -8 15 -10 15 -2 0 -4 -7 -4 -15z"/> <path d="M1045 610 c3 -5 8 -10 11 -10 2 0 4 5 4 10 0 6 -5 10 -11 10 -5 0 -7 -4 -4 -10z"/> <path d="M1280 605 c7 -8 19 -15 26 -15 8 0 11 6 8 15 -4 8 -15 15 -26 15 -17 0 -18 -3 -8 -15z"/> <path d="M1500 611 c0 -15 23 -27 75 -40 28 -7 67 -17 88 -23 47 -14 52 -9 19 22 -18 18 -24 20 -19 8 8 -23 0 -23 -46 2 -24 13 -46 18 -62 14 -18 -4 -27 -1 -31 10 -6 17 -24 22 -24 7z"/> <path d="M2318 613 c7 -3 16 -2 19 1 4 3 -2 6 -13 5 -11 0 -14 -3 -6 -6z"/> <path d="M817 590 c3 -11 9 -17 15 -14 5 3 4 12 -3 20 -16 19 -18 18 -12 -6z"/> <path d="M1920 600 c0 -5 5 -10 11 -10 5 0 7 5 4 10 -3 6 -8 10 -11 10 -2 0 -4 -4 -4 -10z"/> <path d="M660 581 c0 -24 9 -31 32 -22 14 5 13 9 -8 24 -23 17 -24 17 -24 -2z"/> <path d="M1018 579 c17 -20 20 -28 10 -32 -7 -2 -9 -8 -5 -13 5 -5 14 -1 21 8 7 10 17 14 21 10 5 -4 5 -1 1 6 -5 7 -11 11 -14 8 -3 -4 -17 4 -31 16 l-26 23 23 -26z"/> <path d="M1197 589 c7 -7 15 -10 18 -7 3 3 -2 9 -12 12 -14 6 -15 5 -6 -5z"/> <path d="M2435 590 c-3 -5 1 -10 9 -10 8 0 18 5 21 10 3 6 -1 10 -9 10 -8 0 -18 -4 -21 -10z"/> <path d="M1345 580 c3 -5 10 -10 16 -10 5 0 9 5 9 10 0 6 -7 10 -16 10 -8 0 -12 -4 -9 -10z"/> <path d="M1395 570 c10 -11 20 -18 23 -16 5 6 -23 36 -34 36 -4 0 1 -9 11 -20z"/> <path d="M2380 580 c0 -5 -7 -10 -17 -10 -19 0 -9 -13 12 -16 9 -1 15 6 15 17 0 10 -2 19 -5 19 -3 0 -5 -4 -5 -10z"/> <path d="M524 568 c-4 -7 -3 -8 4 -4 7 4 12 2 12 -4 0 -6 5 -8 10 -5 11 7 4 25 -10 25 -5 0 -12 -5 -16 -12z"/> <path d="M1130 571 c0 -5 7 -15 17 -22 15 -13 15 -12 4 9 -12 23 -21 28 -21 13z"/> <path d="M1445 570 c-3 -5 -1 -10 4 -10 6 0 11 5 11 10 0 6 -2 10 -4 10 -3 0 -8 -4 -11 -10z"/> <path d="M2800 570 c-13 -8 -12 -10 3 -10 9 0 17 5 17 10 0 12 -1 12 -20 0z"/> <path d="M2972 571 c2 -7 7 -12 11 -12 12 1 9 15 -3 20 -7 2 -11 -2 -8 -8z"/> <path d="M253 551 c-3 -12 -12 -21 -20 -21 -8 0 -12 -3 -10 -7 8 -14 -30 -68 -46 -67 -9 1 -14 -2 -11 -7 7 -12 34 -11 34 1 0 6 5 9 11 8 6 -2 13 8 15 22 5 25 42 72 53 66 3 -2 15 0 26 5 20 9 20 9 0 7 -11 -2 -26 1 -33 6 -9 5 -15 1 -19 -13z"/> <path d="M1730 556 c0 -8 7 -16 15 -20 8 -3 15 -1 15 3 0 5 -6 12 -12 14 -8 3 -6 6 5 6 9 1 17 -5 17 -13 0 -8 14 -15 35 -18 27 -3 32 -1 23 9 -6 7 -19 13 -29 13 -10 0 -21 5 -24 10 -9 15 -45 12 -45 -4z"/> <path d="M575 550 c-3 -5 -1 -10 4 -10 6 0 11 5 11 10 0 6 -2 10 -4 10 -3 0 -8 -4 -11 -10z"/> <path d="M1345 550 c3 -5 8 -10 11 -10 2 0 4 5 4 10 0 6 -5 10 -11 10 -5 0 -7 -4 -4 -10z"/> <path d="M2276 545 c-24 -18 -13 -18 34 0 31 12 32 14 10 14 -14 0 -34 -6 -44 -14z"/> <path d="M855 540 c3 -5 8 -10 11 -10 2 0 4 5 4 10 0 6 -5 10 -11 10 -5 0 -7 -4 -4 -10z"/> <path d="M1488 543 c7 -3 16 -2 19 1 4 3 -2 6 -13 5 -11 0 -14 -3 -6 -6z"/> <path d="M1392 524 c11 -11 21 -14 26 -9 4 6 6 9 3 8 -2 -1 -13 3 -25 9 -20 10 -20 10 -4 -8z"/> <path d="M1440 531 c0 -19 59 -59 80 -54 23 6 27 33 4 33 -8 0 -12 -5 -8 -11 5 -8 1 -8 -13 0 -11 6 -23 8 -26 5 -3 -3 -8 4 -12 15 -6 21 -25 29 -25 12z"/> <path d="M1555 528 c3 -7 23 -13 44 -14 30 0 36 2 27 12 -6 7 -15 8 -21 4 -6 -5 -17 -5 -25 0 -21 13 -30 12 -25 -2z"/> <path d="M1982 525 c3 -19 11 -21 68 -16 13 1 13 2 0 11 -8 5 -23 7 -34 4 -10 -4 -23 0 -28 7 -7 11 -8 9 -6 -6z"/> <path d="M2083 530 c4 -18 37 -27 37 -10 0 6 -5 8 -11 4 -6 -3 -16 0 -21 7 -8 12 -9 11 -5 -1z"/> <path d="M2497 529 c7 -7 15 -10 18 -7 3 3 -2 9 -12 12 -14 6 -15 5 -6 -5z"/> <path d="M560 522 c0 -12 19 -26 26 -19 2 2 -2 10 -11 17 -9 8 -15 8 -15 2z"/> <path d="M887 516 c5 -15 3 -17 -8 -12 -8 4 -6 1 3 -7 10 -8 15 -17 11 -20 -3 -4 1 -7 10 -7 22 0 21 9 -3 40 -15 18 -18 20 -13 6z"/> <path d="M1898 523 c7 -3 16 -2 19 1 4 3 -2 6 -13 5 -11 0 -14 -3 -6 -6z"/> <path d="M2150 526 c0 -7 40 -14 44 -7 3 4 -6 8 -20 9 -13 1 -24 0 -24 -2z"/> <path d="M2815 520 c-3 -5 -1 -10 4 -10 6 0 11 5 11 10 0 6 -2 10 -4 10 -3 0 -8 -4 -11 -10z"/> <path d="M1838 503 c-10 -3 -18 -9 -18 -15 0 -5 6 -8 14 -5 8 3 23 -3 35 -14 17 -16 21 -17 21 -4 0 8 -7 15 -16 15 -8 0 -13 4 -9 9 7 12 -5 19 -27 14z"/> <path d="M376 492 c-3 -5 11 -13 32 -17 20 -4 40 -12 44 -18 4 -7 12 -6 24 4 16 13 14 15 -22 20 -21 3 -46 9 -55 13 -10 4 -20 3 -23 -2z"/> <path d="M1730 493 c1 -18 30 -45 45 -41 13 2 10 8 -14 26 -17 12 -31 19 -31 15z"/> <path d="M2410 489 c0 -5 -4 -7 -10 -4 -5 3 -10 2 -10 -3 0 -17 13 -21 26 -7 16 16 18 25 4 25 -5 0 -10 -5 -10 -11z"/> <path d="M345 480 c3 -5 8 -10 11 -10 2 0 4 5 4 10 0 6 -5 10 -11 10 -5 0 -7 -4 -4 -10z"/> <path d="M500 475 c0 -9 6 -12 15 -9 8 4 15 10 15 15 0 5 -7 9 -15 9 -8 0 -15 -7 -15 -15z"/> <path d="M1051 474 c0 -11 3 -14 6 -6 3 7 2 16 -1 19 -3 4 -6 -2 -5 -13z"/> <path d="M1960 465 c0 -9 6 -12 15 -9 8 4 15 7 15 9 0 2 -7 5 -15 9 -9 3 -15 0 -15 -9z"/> <path d="M1656 462 c-3 -6 -1 -14 5 -17 15 -10 25 3 12 16 -7 7 -13 7 -17 1z"/> <path d="M2166 461 c5 -5 23 -12 39 -16 30 -6 30 -6 -4 10 -38 17 -49 19 -35 6z"/> <path d="M902 448 c3 -7 11 -34 19 -60 7 -27 17 -48 22 -48 4 0 6 4 2 9 -3 5 -1 12 5 16 6 4 8 11 4 16 -3 5 -10 6 -16 3 -7 -4 -8 -2 -4 5 4 6 2 19 -6 28 -11 15 -11 16 5 10 11 -4 16 -3 12 3 -3 6 -13 10 -21 10 -8 0 -12 5 -9 10 3 6 1 10 -5 10 -7 0 -10 -6 -8 -12z"/> <path d="M2830 450 c0 -5 5 -10 10 -10 6 0 10 5 10 10 0 6 -4 10 -10 10 -5 0 -10 -4 -10 -10z"/> <path d="M1563 434 c0 -8 6 -14 14 -14 7 0 13 -6 13 -13 0 -17 37 -39 45 -27 3 6 1 10 -4 10 -6 0 -11 4 -11 10 0 5 8 7 18 3 15 -5 15 -4 2 9 -8 9 -29 20 -46 26 -24 8 -31 7 -31 -4z"/> <path d="M2115 431 c-3 -5 -2 -12 3 -15 5 -3 9 1 9 9 0 17 -3 19 -12 6z"/> <path d="M134 422 c3 -2 -1 -10 -7 -17 -9 -10 -16 -10 -27 -1 -13 9 -13 9 -1 -6 10 -13 18 -15 31 -8 23 12 32 37 14 37 -8 0 -12 -2 -10 -5z"/> <path d="M495 419 c-4 -6 -5 -12 -2 -15 2 -3 7 2 10 11 7 17 1 20 -8 4z"/> <path d="M1086 422 c-3 -3 -3 -9 0 -13 7 -12 54 -12 54 0 0 10 -47 21 -54 13z"/> <path d="M1980 419 c0 -5 5 -7 10 -4 6 3 10 8 10 11 0 2 -4 4 -10 4 -5 0 -10 -5 -10 -11z"/> <path d="M2930 421 c0 -5 7 -11 14 -14 10 -4 13 -1 9 9 -6 15 -23 19 -23 5z"/> <path d="M1740 409 c0 -5 5 -7 10 -4 6 3 10 8 10 11 0 2 -4 4 -10 4 -5 0 -10 -5 -10 -11z"/> <path d="M2030 410 c0 -6 11 -8 28 -4 39 10 40 14 4 14 -18 0 -32 -5 -32 -10z"/> <path d="M2412 404 c-20 -22 -14 -33 13 -21 14 7 25 15 25 18 0 14 -26 16 -38 3z"/> <path d="M2550 416 c0 -2 7 -7 16 -10 8 -3 12 -2 9 4 -6 10 -25 14 -25 6z"/> <path d="M2160 406 c0 -2 7 -6 15 -10 8 -3 15 -1 15 4 0 6 -7 10 -15 10 -8 0 -15 -2 -15 -4z"/> <path d="M1270 385 c0 -8 7 -15 16 -15 14 0 14 3 4 15 -7 8 -14 15 -16 15 -2 0 -4 -7 -4 -15z"/> <path d="M67 384 c-9 -9 4 -35 14 -28 5 3 9 12 9 20 0 14 -12 19 -23 8z"/> <path d="M811 374 c0 -11 3 -14 6 -6 3 7 2 16 -1 19 -3 4 -6 -2 -5 -13z"/> <path d="M1552 370 c7 -11 17 -20 22 -20 5 0 1 9 -9 20 -10 11 -20 20 -22 20 -2 0 2 -9 9 -20z"/> <path d="M1650 368 c0 -12 7 -17 21 -15 12 1 24 -4 27 -12 3 -9 0 -11 -8 -6 -9 5 -11 4 -6 -3 4 -7 2 -12 -5 -12 -7 0 -10 -2 -8 -5 3 -2 15 -2 27 2 22 5 31 33 11 33 -6 0 -9 9 -6 20 4 16 0 19 -24 17 -20 -1 -29 -7 -29 -19z"/> <path d="M2071 374 c0 -11 3 -14 6 -6 3 7 2 16 -1 19 -3 4 -6 -2 -5 -13z"/> <path d="M2745 381 c-3 -5 -1 -12 5 -16 5 -3 10 1 10 9 0 18 -6 21 -15 7z"/> <path d="M443 366 c1 -11 9 -21 17 -23 10 -3 11 -2 4 4 -6 4 -14 15 -17 23 -5 11 -6 9 -4 -4z"/> <path d="M1497 365 c3 -8 9 -12 14 -9 12 7 11 11 -5 17 -10 4 -13 1 -9 -8z"/> <path d="M2686 368 c3 -4 9 -8 15 -8 5 0 9 4 9 8 0 5 -7 9 -15 9 -8 0 -12 -4 -9 -9z"/> <path d="M663 355 c0 -8 4 -15 9 -15 4 0 8 4 8 9 0 6 -4 12 -8 15 -5 3 -9 -1 -9 -9z"/> <path d="M1358 352 c-4 -15 -1 -18 14 -14 11 2 16 8 11 11 -4 3 -11 10 -14 14 -4 4 -9 -1 -11 -11z"/> <path d="M2038 363 c7 -3 16 -2 19 1 4 3 -2 6 -13 5 -11 0 -14 -3 -6 -6z"/> <path d="M2443 362 c-17 -5 -20 -11 -13 -22 6 -10 10 -11 10 -2 0 6 7 12 15 12 8 0 15 5 15 10 0 6 -1 10 -2 9 -2 -1 -13 -4 -25 -7z"/> <path d="M955 351 c3 -5 1 -12 -5 -16 -15 -9 -12 -61 3 -74 8 -6 17 -8 20 -4 4 3 7 1 7 -5 0 -7 -4 -12 -9 -12 -17 0 -10 -78 10 -101 10 -12 19 -26 19 -31 0 -5 5 -6 10 -3 14 9 12 21 -5 39 -13 12 -13 17 -2 28 12 10 11 15 -4 32 -11 11 -15 24 -10 30 10 13 11 47 0 41 -11 -8 -20 26 -10 39 6 7 5 17 -3 29 -13 17 -32 25 -21 8z m15 -31 c0 -5 -4 -10 -10 -10 -5 0 -10 5 -10 10 0 6 5 10 10 10 6 0 10 -4 10 -10z m12 -152 c-9 -9 -12 -7 -12 12 0 19 3 21 12 12 9 -9 9 -15 0 -24z"/> <path d="M1737 351 c9 -11 10 -18 2 -28 -9 -10 -8 -13 4 -13 8 0 22 -11 31 -25 9 -14 24 -25 34 -25 10 0 22 -4 28 -10 6 -6 15 -6 24 0 10 7 11 10 3 11 -35 4 -85 28 -79 37 3 5 -9 22 -27 38 -18 16 -26 22 -20 15z"/> <path d="M45 340 c-3 -5 -1 -10 4 -10 6 0 11 5 11 10 0 6 -2 10 -4 10 -3 0 -8 -4 -11 -10z"/> <path d="M1194 325 c-9 -13 -20 -22 -25 -19 -5 3 -9 -1 -9 -9 0 -10 7 -13 20 -10 11 3 20 14 20 24 0 12 5 16 15 13 16 -7 21 11 5 21 -5 3 -17 -6 -26 -20z"/> <path d="M2286 342 c-3 -5 1 -9 9 -9 8 0 12 4 9 9 -3 4 -7 8 -9 8 -2 0 -6 -4 -9 -8z"/> <path d="M2360 341 c0 -5 5 -13 10 -16 6 -3 10 -2 10 4 0 5 -4 13 -10 16 -5 3 -10 2 -10 -4z"/> <path d="M1950 330 c-9 -6 -10 -10 -3 -10 6 0 15 5 18 10 8 12 4 12 -15 0z"/> <path d="M578 303 c-4 -14 -1 -24 8 -27 8 -3 14 -4 14 -2 0 3 3 12 7 22 4 11 3 15 -4 11 -6 -4 -13 -2 -15 5 -3 7 -7 3 -10 -9z"/> <path d="M2965 310 c-3 -5 -1 -10 4 -10 6 0 11 5 11 10 0 6 -2 10 -4 10 -3 0 -8 -4 -11 -10z"/> <path d="M867 299 c7 -7 15 -10 18 -7 3 3 -2 9 -12 12 -14 6 -15 5 -6 -5z"/> <path d="M2310 300 c0 -5 5 -10 11 -10 5 0 7 5 4 10 -3 6 -8 10 -11 10 -2 0 -4 -4 -4 -10z"/> <path d="M2860 295 c-17 -10 -20 -14 -9 -15 9 0 22 7 29 15 15 18 12 18 -20 0z"/> <path d="M1260 285 c0 -8 4 -15 10 -15 5 0 7 7 4 15 -4 8 -8 15 -10 15 -2 0 -4 -7 -4 -15z"/> <path d="M2605 290 c3 -5 8 -10 11 -10 2 0 4 5 4 10 0 6 -5 10 -11 10 -5 0 -7 -4 -4 -10z"/> <path d="M330 286 c0 -2 7 -9 15 -16 9 -7 15 -8 15 -2 0 5 -7 12 -15 16 -8 3 -15 4 -15 2z"/> <path d="M2252 274 c-14 -16 -5 -18 17 -5 7 5 9 11 5 14 -5 3 -15 -1 -22 -9z"/> <path d="M1966 268 c3 -4 15 -8 26 -8 12 0 18 3 14 7 -10 10 -46 11 -40 1z"/> <path d="M2757 273 c-4 -3 -7 -11 -7 -17 0 -6 5 -5 12 2 6 6 9 14 7 17 -3 3 -9 2 -12 -2z"/> <path d="M1330 261 c0 -7 -4 -9 -10 -6 -5 3 -10 1 -10 -4 0 -6 4 -11 9 -11 13 0 25 20 17 27 -3 4 -6 1 -6 -6z"/> <path d="M1470 260 c0 -5 4 -10 9 -10 6 0 13 5 16 10 3 6 -1 10 -9 10 -9 0 -16 -4 -16 -10z"/> <path d="M531 252 c-1 -8 -6 -10 -13 -6 -8 5 -7 1 2 -10 15 -19 26 -7 17 17 -4 9 -6 9 -6 -1z"/> <path d="M1390 251 c0 -6 4 -13 10 -16 6 -3 7 1 4 9 -7 18 -14 21 -14 7z"/> <path d="M1750 250 c0 -5 5 -10 10 -10 6 0 10 5 10 10 0 6 -4 10 -10 10 -5 0 -10 -4 -10 -10z"/> <path d="M2040 244 c0 -8 5 -12 10 -9 6 4 8 11 5 16 -9 14 -15 11 -15 -7z"/> <path d="M2355 250 c-3 -5 1 -10 9 -10 9 0 16 5 16 10 0 6 -4 10 -9 10 -6 0 -13 -4 -16 -10z"/> <path d="M2398 253 c7 -3 16 -2 19 1 4 3 -2 6 -13 5 -11 0 -14 -3 -6 -6z"/> <path d="M1574 215 c0 -29 1 -32 12 -17 8 11 9 23 3 34 -13 24 -14 23 -15 -17z"/> <path d="M2321 234 c0 -11 3 -14 6 -6 3 7 2 16 -1 19 -3 4 -6 -2 -5 -13z"/> <path d="M730 230 c-9 -6 -10 -10 -3 -10 6 0 15 5 18 10 8 12 4 12 -15 0z"/> <path d="M2093 224 c0 -10 4 -11 13 -3 8 7 14 7 19 -1 3 -5 12 -10 18 -10 8 0 7 4 -2 9 -11 7 -9 10 10 13 13 3 6 5 -17 5 -28 1 -41 -4 -41 -13z"/> <path d="M2640 225 c0 -8 2 -15 4 -15 2 0 6 7 10 15 3 8 1 15 -4 15 -6 0 -10 -7 -10 -15z"/> <path d="M300 209 c0 -5 5 -7 10 -4 6 3 10 8 10 11 0 2 -4 4 -10 4 -5 0 -10 -5 -10 -11z"/> <path d="M1450 210 c0 -5 5 -10 11 -10 5 0 7 5 4 10 -3 6 -8 10 -11 10 -2 0 -4 -4 -4 -10z"/> <path d="M1650 205 c0 -19 11 -19 36 0 18 14 18 14 -8 15 -18 0 -28 -5 -28 -15z"/> <path d="M2685 210 c-8 -13 5 -13 25 0 13 8 13 10 -2 10 -9 0 -20 -4 -23 -10z"/> <path d="M2880 210 c0 -5 5 -10 11 -10 5 0 7 5 4 10 -3 6 -8 10 -11 10 -2 0 -4 -4 -4 -10z"/> <path d="M1495 200 c3 -5 11 -10 16 -10 6 0 7 5 4 10 -3 6 -11 10 -16 10 -6 0 -7 -4 -4 -10z"/> <path d="M2035 200 c-3 -5 -1 -10 4 -10 6 0 11 5 11 10 0 6 -2 10 -4 10 -3 0 -8 -4 -11 -10z"/> <path d="M2526 198 c3 -5 10 -6 15 -3 13 9 11 12 -6 12 -8 0 -12 -4 -9 -9z"/> <path d="M260 185 c0 -8 4 -15 10 -15 5 0 7 7 4 15 -4 8 -8 15 -10 15 -2 0 -4 -7 -4 -15z"/> <path d="M1336 191 c-4 -5 3 -7 14 -4 23 6 26 13 6 13 -8 0 -17 -4 -20 -9z"/> <path d="M1420 190 c0 -5 5 -10 11 -10 5 0 7 5 4 10 -3 6 -8 10 -11 10 -2 0 -4 -4 -4 -10z"/> <path d="M1595 189 c-4 -6 -5 -12 -2 -15 2 -3 7 2 10 11 7 17 1 20 -8 4z"/> <path d="M1745 190 c3 -5 8 -10 11 -10 2 0 4 5 4 10 0 6 -5 10 -11 10 -5 0 -7 -4 -4 -10z"/> <path d="M2195 190 c3 -5 10 -10 16 -10 5 0 9 5 9 10 0 6 -7 10 -16 10 -8 0 -12 -4 -9 -10z"/> <path d="M815 180 c3 -5 8 -10 11 -10 2 0 4 5 4 10 0 6 -5 10 -11 10 -5 0 -7 -4 -4 -10z"/> <path d="M1050 186 c0 -4 7 -14 15 -22 8 -9 15 -11 15 -6 0 5 -7 15 -15 22 -8 7 -15 9 -15 6z"/> <path d="M1821 181 c-9 -6 -4 -8 17 -8 17 1 28 5 26 9 -7 10 -26 10 -43 -1z"/> <path d="M2583 183 c4 -3 2 -12 -4 -20 -18 -20 -1 -15 21 7 20 20 20 20 -2 20 -12 0 -18 -3 -15 -7z"/> <path d="M2790 174 c0 -15 26 -19 34 -5 3 5 -3 11 -14 14 -13 3 -20 0 -20 -9z"/> <path d="M2848 183 c7 -3 16 -2 19 1 4 3 -2 6 -13 5 -11 0 -14 -3 -6 -6z"/> <path d="M1161 166 c-7 -8 -8 -17 -3 -20 6 -3 12 3 15 14 6 24 4 25 -12 6z"/> <path d="M1385 170 c3 -5 8 -10 11 -10 2 0 4 5 4 10 0 6 -5 10 -11 10 -5 0 -7 -4 -4 -10z"/> <path d="M1640 159 c0 -3 13 -6 30 -5 16 1 30 4 30 9 0 4 -13 6 -30 5 -16 -1 -30 -5 -30 -9z"/> <path d="M2316 154 c-8 -22 -4 -25 11 -9 7 8 9 16 4 19 -5 3 -12 -1 -15 -10z"/> <path d="M2404 154 c3 -9 6 -21 6 -27 0 -7 4 -7 9 2 10 16 4 41 -11 41 -6 0 -7 -7 -4 -16z"/> <path d="M2752 150 c-12 -10 -18 -21 -13 -24 5 -3 12 1 15 10 3 9 13 14 21 11 9 -4 12 -1 8 9 -6 17 -3 17 -31 -6z"/> <path d="M1952 151 c4 -13 18 -16 19 -4 0 4 -5 9 -11 12 -7 2 -11 -2 -8 -8z"/> <path d="M2488 153 c-10 -2 -18 -12 -17 -21 0 -11 2 -12 6 -4 2 6 11 12 18 12 8 0 17 5 20 10 6 10 2 11 -27 3z"/> <path d="M595 130 c10 -11 20 -20 22 -20 2 0 -1 9 -7 20 -6 11 -16 20 -22 20 -6 0 -3 -9 7 -20z"/> <path d="M1721 124 c0 -11 3 -14 6 -6 3 7 2 16 -1 19 -3 4 -6 -2 -5 -13z"/> <path d="M2238 132 c-16 -2 -28 -7 -28 -12 0 -5 -6 -7 -14 -4 -10 4 -14 -1 -13 -14 1 -19 3 -19 28 -7 14 8 29 12 31 9 3 -2 11 2 18 11 16 19 13 21 -22 17z"/> <path d="M2625 130 c-3 -5 -15 -10 -25 -10 -12 0 -18 -7 -17 -20 1 -17 3 -17 17 -4 8 8 24 21 35 29 11 8 15 15 8 15 -6 0 -15 -4 -18 -10z"/> <path d="M2945 130 c-16 -7 -17 -9 -3 -9 9 -1 20 4 23 9 7 11 7 11 -20 0z"/> <path d="M1490 119 c0 -5 5 -7 10 -4 6 3 10 8 10 11 0 2 -4 4 -10 4 -5 0 -10 -5 -10 -11z"/> <path d="M1586 117 c3 -10 9 -15 12 -12 3 3 0 11 -7 18 -10 9 -11 8 -5 -6z"/> <path d="M1811 114 c0 -11 3 -14 6 -6 3 7 2 16 -1 19 -3 4 -6 -2 -5 -13z"/> <path d="M1836 121 c-6 -9 35 -24 43 -15 6 5 -18 24 -31 24 -4 0 -9 -4 -12 -9z"/> <path d="M1900 115 c0 -8 2 -15 4 -15 2 0 6 7 10 15 3 8 1 15 -4 15 -6 0 -10 -7 -10 -15z"/> <path d="M2012 121 c-11 -6 -9 -9 6 -13 15 -4 19 -2 15 8 -6 16 -4 16 -21 5z"/> <path d="M2895 120 c3 -5 8 -10 11 -10 2 0 4 5 4 10 0 6 -5 10 -11 10 -5 0 -7 -4 -4 -10z"/> <path d="M965 101 c4 -12 8 -34 10 -48 4 -37 45 -55 45 -20 0 8 -3 7 -9 -2 -7 -11 -11 -10 -19 5 -5 11 -8 29 -6 40 2 12 -4 28 -13 35 -14 12 -15 11 -8 -10z"/> <path d="M1550 104 c0 -8 5 -12 10 -9 6 3 10 10 10 16 0 5 -4 9 -10 9 -5 0 -10 -7 -10 -16z"/> <path d="M996 82 c-9 -14 9 -31 23 -23 7 5 10 14 7 20 -8 13 -23 14 -30 3z"/> <path d="M2715 80 c-16 -7 -17 -9 -3 -9 9 -1 20 4 23 9 7 11 7 11 -20 0z"/> <path d="M2864 75 c-10 -8 -14 -15 -8 -15 6 0 17 7 24 15 16 19 9 19 -16 0z"/> <path d="M1640 75 c0 -3 7 -14 16 -23 15 -14 16 -14 13 3 -4 17 -29 35 -29 20z"/> <path d="M1800 60 c0 -5 5 -10 11 -10 6 0 9 -9 6 -20 -5 -21 0 -25 20 -12 8 5 6 13 -7 30 -20 24 -30 28 -30 12z"/> <path d="M580 56 c0 -2 7 -7 16 -10 8 -3 12 -2 9 4 -6 10 -25 14 -25 6z"/> <path d="M2875 43 c-23 -13 -26 -18 -13 -21 10 -2 27 6 40 17 26 25 14 26 -27 4z"/> <path d="M1335 40 c4 -6 11 -8 16 -5 14 9 11 15 -7 15 -8 0 -12 -5 -9 -10z"/> <path d="M1970 40 c-9 -6 -10 -10 -3 -10 6 0 15 5 18 10 8 12 4 12 -15 0z"/> <path d="M2086 41 c-4 -5 -2 -12 3 -15 5 -4 12 -2 15 3 4 5 2 12 -3 15 -5 4 -12 2 -15 -3z"/> <path d="M2281 47 c2 -1 12 -9 22 -16 15 -12 17 -12 11 3 -3 9 -13 16 -22 16 -8 0 -13 -1 -11 -3z"/> <path d="M2660 32 c0 -12 19 -26 26 -19 2 2 -2 10 -11 17 -9 8 -15 8 -15 2z"/> <path d="M2575 20 c-3 -5 -1 -10 4 -10 6 0 11 5 11 10 0 6 -2 10 -4 10 -3 0 -8 -4 -11 -10z"/> </g> </svg> 