<?xml version="1.0" standalone="no"?>
<!DOCTYPE svg PUBLIC "-//W3C//DTD SVG 20010904//EN"
 "http://www.w3.org/TR/2001/REC-SVG-20010904/DTD/svg10.dtd">
<svg version="1.0" xmlns="http://www.w3.org/2000/svg"
 width="1745.000000pt" height="1745.000000pt" viewBox="0 0 1745.000000 1745.000000"
 preserveAspectRatio="xMidYMid meet">
<metadata>
Created by potrace 1.14, written by Peter Selinger 2001-2017
</metadata>
<g transform="translate(0.000000,1745.000000) scale(0.100000,-0.100000)"
fill="#000000" stroke="none">
<path d="M4207 16724 c-1 -1 -103 -5 -227 -8 -124 -4 -247 -9 -275 -11 -27 -2
-104 -7 -170 -10 -66 -3 -136 -8 -155 -10 -19 -2 -84 -6 -145 -10 -60 -3 -123
-8 -140 -10 -16 -3 -64 -7 -105 -10 -76 -6 -115 -10 -205 -19 -27 -3 -77 -8
-110 -11 -59 -6 -90 -9 -170 -19 -22 -3 -65 -8 -96 -11 -31 -3 -66 -7 -77 -10
-12 -2 -52 -7 -89 -10 -91 -9 -154 -22 -198 -40 -148 -61 -226 -308 -176 -550
41 -194 95 -287 233 -398 112 -90 154 -135 212 -225 58 -91 129 -270 160 -407
6 -26 135 -558 192 -795 36 -146 82 -319 104 -386 167 -515 446 -893 730 -988
52 -17 219 -58 335 -81 44 -9 89 -19 100 -21 11 -2 45 -8 75 -14 30 -6 66 -12
80 -15 34 -7 195 -32 245 -39 158 -21 295 -36 375 -41 25 -2 90 -6 145 -11
114 -8 519 -8 616 0 35 3 98 8 139 11 135 11 255 26 435 55 347 54 465 80 610
130 297 103 550 269 738 485 164 187 277 390 400 720 41 110 100 263 130 340
149 377 188 484 256 699 48 148 82 195 176 240 61 30 106 39 260 52 314 27
503 -17 613 -141 41 -46 52 -76 128 -330 244 -823 494 -1326 824 -1655 282
-282 621 -457 1065 -549 115 -24 128 -26 250 -42 130 -16 137 -17 275 -25 288
-17 625 -7 1030 31 29 3 142 15 185 21 17 2 68 8 115 14 47 6 94 13 105 15 11
2 43 7 70 10 71 9 347 53 430 70 39 8 81 16 95 18 107 19 257 82 360 150 129
86 273 246 358 398 11 20 25 45 31 55 27 48 123 281 135 329 2 6 6 17 9 25 30
75 89 307 167 660 123 553 192 777 293 957 80 141 144 212 269 301 107 76 149
125 198 227 67 140 83 300 45 450 -22 86 -67 180 -98 200 -34 22 -125 51 -229
74 -101 22 -113 24 -233 41 -44 7 -87 13 -95 15 -8 1 -42 6 -75 9 -33 4 -73 9
-90 11 -16 2 -61 7 -100 10 -38 4 -77 8 -85 10 -8 1 -58 6 -110 10 -52 3 -117
8 -145 10 -400 30 -686 39 -1235 39 -410 0 -826 -8 -960 -19 -25 -2 -101 -6
-170 -10 -69 -3 -145 -8 -170 -10 -25 -2 -88 -7 -140 -10 -52 -3 -115 -8 -140
-10 -25 -3 -72 -7 -105 -10 -59 -4 -132 -11 -230 -21 -27 -3 -61 -7 -75 -9
-14 -2 -56 -7 -95 -10 -69 -6 -86 -8 -175 -20 -25 -3 -63 -8 -85 -10 -138 -17
-409 -56 -490 -70 -44 -8 -98 -17 -120 -20 -22 -4 -98 -17 -170 -30 -71 -14
-141 -26 -155 -29 -14 -2 -36 -7 -50 -10 -14 -3 -36 -8 -50 -10 -76 -14 -191
-39 -310 -66 -243 -57 -255 -59 -425 -76 -121 -11 -421 -6 -558 11 -116 14
-355 46 -377 50 -14 3 -45 8 -70 11 -25 3 -54 8 -65 10 -11 3 -35 7 -54 10
-18 3 -43 8 -55 10 -36 7 -260 46 -282 49 -11 2 -45 8 -75 14 -47 9 -207 37
-319 56 -19 3 -42 8 -50 10 -8 2 -33 6 -55 9 -55 8 -116 18 -140 22 -11 3 -80
13 -154 24 -73 11 -143 22 -155 25 -11 2 -41 6 -66 9 -55 6 -206 26 -240 31
-14 2 -54 7 -90 10 -36 4 -72 8 -81 10 -14 3 -116 13 -194 20 -16 2 -57 6 -90
9 -71 7 -183 17 -245 21 -25 1 -92 6 -150 10 -295 19 -556 28 -933 29 -192 1
-349 1 -350 0z"/>
<path d="M1697 12145 c-102 -53 -188 -184 -251 -380 -29 -93 -52 -184 -61
-240 -3 -22 -7 -47 -10 -55 -4 -16 -11 -58 -20 -135 -4 -27 -8 -60 -10 -73
-26 -162 -26 -883 0 -1092 2 -19 6 -66 10 -105 7 -95 15 -174 20 -210 2 -16 7
-57 10 -90 4 -33 8 -71 11 -85 2 -14 8 -61 14 -105 15 -108 34 -236 46 -305 2
-14 7 -41 10 -60 14 -91 80 -452 91 -500 3 -14 8 -34 10 -45 36 -198 210 -936
258 -1095 7 -25 30 -108 50 -185 45 -171 142 -499 159 -540 8 -16 35 -82 61
-145 98 -240 291 -590 491 -889 38 -57 74 -111 79 -120 69 -113 344 -482 554
-746 96 -120 418 -504 441 -525 3 -3 39 -43 80 -90 41 -47 79 -90 85 -96 5 -6
48 -53 95 -104 407 -448 1059 -1094 1450 -1436 24 -21 51 -46 60 -54 44 -41
174 -155 246 -215 26 -22 58 -49 70 -60 34 -31 60 -53 189 -158 66 -54 131
-107 144 -118 14 -12 41 -33 60 -47 20 -15 41 -31 47 -37 89 -79 509 -378 726
-516 555 -353 1014 -566 1452 -674 149 -36 177 -42 241 -50 22 -3 51 -8 65
-10 236 -38 605 -38 840 0 14 2 45 7 70 10 40 6 212 40 250 50 8 2 42 11 75
19 495 121 1134 447 1552 791 7 6 18 15 25 20 35 27 194 162 245 207 32 29
148 142 258 252 170 170 257 265 514 561 14 17 46 55 71 85 25 30 47 57 50 60
3 3 17 21 32 42 15 20 33 42 40 50 19 19 146 179 297 373 73 94 143 184 156
200 48 63 251 324 275 355 14 18 66 85 116 149 49 64 149 195 222 291 73 96
135 180 140 185 4 6 50 69 101 140 52 72 111 153 131 180 20 28 57 79 82 115
25 36 61 88 80 115 125 179 488 738 488 751 0 1 24 42 53 91 55 90 62 101 175
303 146 260 346 669 462 945 156 372 266 692 367 1070 19 72 36 139 39 150 2
11 15 67 28 125 14 58 27 116 30 130 3 14 10 50 16 80 14 67 17 83 35 185 16
89 21 119 30 185 3 25 8 52 10 60 2 8 6 38 10 65 5 46 20 163 30 245 8 63 34
346 40 445 16 233 20 412 19 805 -1 519 -8 682 -39 905 -38 273 -126 481 -221
521 -183 76 -304 -67 -383 -456 -10 -52 -21 -111 -24 -130 -3 -19 -10 -62 -16
-95 -5 -33 -13 -80 -16 -105 -6 -46 -15 -114 -20 -140 -1 -8 -6 -40 -10 -70
-3 -30 -8 -66 -10 -80 -2 -14 -7 -49 -10 -79 -4 -30 -8 -61 -10 -70 -1 -9 -6
-45 -10 -81 -4 -36 -8 -67 -10 -70 -2 -3 -6 -29 -10 -59 -4 -30 -8 -61 -10
-70 -3 -17 -14 -88 -21 -136 -2 -16 -9 -52 -14 -80 -6 -27 -12 -61 -15 -75
-30 -155 -31 -160 -60 -280 -50 -205 -130 -432 -206 -583 -37 -75 -95 -175
-109 -187 -3 -3 -17 -24 -32 -47 -65 -99 -225 -238 -363 -313 -33 -18 -72 -41
-87 -51 -14 -11 -29 -19 -32 -19 -4 0 -12 -5 -19 -10 -19 -16 -224 -151 -295
-194 -244 -147 -409 -105 -940 241 -191 124 -440 299 -1287 903 -879 627 -976
692 -1215 816 -297 154 -519 216 -750 209 -131 -4 -194 -19 -438 -102 -90 -30
-199 -61 -241 -68 -139 -25 -342 -4 -536 55 -85 26 -286 81 -310 86 -11 2 -42
8 -70 13 -27 5 -93 9 -145 9 -270 0 -496 -99 -908 -398 -183 -133 -205 -149
-307 -216 -150 -100 -296 -173 -540 -269 -588 -230 -661 -279 -924 -609 -238
-300 -292 -355 -522 -533 -342 -263 -564 -381 -809 -427 -93 -18 -243 -18
-340 -1 -432 78 -829 451 -1163 1095 -35 69 -79 159 -97 200 -18 41 -42 98
-54 125 -13 28 -37 88 -55 135 -18 47 -37 94 -42 105 -29 66 -157 473 -184
585 -2 8 -15 60 -29 115 -26 103 -94 431 -101 488 -2 18 -9 64 -15 102 -5 39
-12 84 -15 100 -2 17 -7 57 -10 90 -3 33 -8 76 -10 95 -3 19 -7 80 -10 135
-13 276 -67 418 -182 483 -30 16 -92 15 -126 -3z m7972 -2509 c46 -4 99 -9
117 -11 19 -3 50 -7 70 -10 262 -37 498 -131 719 -287 158 -111 398 -367 537
-571 23 -34 46 -66 50 -72 43 -52 348 -570 348 -590 0 -2 17 -41 39 -87 92
-199 140 -408 135 -590 -7 -319 -164 -575 -444 -730 -37 -20 -130 -60 -150
-64 -3 0 -12 -3 -20 -6 -84 -32 -246 -34 -297 -3 -59 35 -63 80 -18 177 l25
53 -34 30 c-29 26 -379 241 -516 318 -522 291 -901 434 -1250 472 -63 7 -255
8 -286 1 -12 -2 -45 -7 -75 -11 -30 -4 -62 -11 -71 -16 -10 -5 -18 -7 -18 -5
0 3 -18 -1 -40 -9 -22 -8 -43 -14 -46 -14 -5 1 -46 -14 -89 -31 -68 -28 -151
-69 -225 -112 -98 -56 -82 -46 -264 -164 -78 -50 -193 -122 -256 -160 -215
-128 -220 -135 -218 -334 2 -114 -1 -140 -16 -170 -44 -83 -112 -110 -261
-105 -55 2 -109 6 -120 8 -11 3 -40 10 -65 16 -187 44 -467 165 -582 251 -125
94 -185 248 -182 465 0 61 4 130 8 155 31 201 77 365 169 595 7 16 44 93 83
170 241 479 547 833 917 1063 198 124 478 232 727 281 159 31 180 34 370 56
19 2 73 7 120 10 47 3 119 7 160 10 108 7 235 13 400 21 80 3 146 7 147 8 5 4
324 -2 402 -8z"/>
</g>
</svg>
